<?xml version="1.0" encoding="UTF-8"?>
<svg version="1.1" xmlns="http://www.w3.org/2000/svg" width="626" height="626">
<path d="M0 0 C206.58 0 413.16 0 626 0 C626 206.58 626 413.16 626 626 C419.42 626 212.84 626 0 626 C0 419.42 0 212.84 0 0 Z " fill="#FEFEFE" transform="translate(0,0)"/>
<path d="M0 0 C0.83655121 0.00182281 1.67310242 0.00364563 2.53500366 0.00552368 C21.74813694 0.07596029 39.1574493 2.32649376 57.4375 8.3125 C58.44425781 8.59609375 59.45101562 8.8796875 60.48828125 9.171875 C98.28400655 20.25443899 132.17480493 51.80708493 151.4375 85.3125 C151.76991699 85.88693848 152.10233398 86.46137695 152.44482422 87.05322266 C166.60382344 111.74505327 174.08464345 138.79264887 173.71875 167.24658203 C173.68724381 169.7075111 173.6777174 172.16779393 173.671875 174.62890625 C173.60259771 189.0687902 172.4004707 202.37508171 168.4375 216.3125 C168.20289063 217.1566748 167.96828125 218.00084961 167.7265625 218.87060547 C163.84408234 232.64190267 158.71103029 244.99051861 151.4375 257.3125 C151.05835449 257.95654785 150.67920898 258.6005957 150.28857422 259.26416016 C126.35184072 299.32090331 88.40773858 326.65319646 43.4375 338.3125 C33.56537959 340.75732688 23.89273405 342.46581705 13.71484375 342.48046875 C12.89230606 342.48379715 12.06976837 342.48712555 11.2223053 342.49055481 C9.48683222 342.49559499 7.75134953 342.49796404 6.01586914 342.49780273 C3.40689383 342.49997346 0.79835296 342.51811672 -1.81054688 342.53710938 C-17.29457392 342.59003519 -31.65272461 340.53538002 -46.5625 336.3125 C-47.26358887 336.1170459 -47.96467773 335.9215918 -48.68701172 335.72021484 C-89.57123438 324.04563187 -125.55925946 294.04415078 -146.5625 257.3125 C-149.40588446 252.0667716 -152.04083487 246.71940986 -154.5625 241.3125 C-154.89032471 240.61817871 -155.21814941 239.92385742 -155.5559082 239.20849609 C-165.92307144 216.67769368 -168.79015514 193.61490578 -168.9375 169.125 C-168.9496907 167.92966141 -168.9496907 167.92966141 -168.96212769 166.71017456 C-169.07714244 151.64401694 -167.44339986 136.87241479 -162.9375 122.4375 C-162.68661621 121.62071777 -162.43573242 120.80393555 -162.17724609 119.96240234 C-156.10896329 100.99675428 -146.75892978 83.03701579 -134.5625 67.3125 C-133.91023438 66.45527344 -133.25796875 65.59804687 -132.5859375 64.71484375 C-109.99008531 35.98341372 -79.13923158 15.73605493 -44.1875 5.375 C-43.2380249 5.09245361 -42.2885498 4.80990723 -41.31030273 4.51879883 C-27.61942968 0.6723323 -14.11957883 -0.06380565 0 0 Z " fill="#DE0202" transform="translate(310.5625,141.6875)"/>
<path d="M0 0 C1.64078705 2.00676186 3.14304917 4.00450762 4.625 6.125 C5.0694043 6.75809082 5.51380859 7.39118164 5.97167969 8.04345703 C13.85392215 19.43800868 19.61473317 30.87843509 24 44 C24.23348145 44.69480469 24.46696289 45.38960938 24.70751953 46.10546875 C32.89752255 70.7380838 33.75971038 94.56855476 29 120 C28.70996094 121.56234375 28.70996094 121.56234375 28.4140625 123.15625 C23.22186196 146.62229921 12.38396431 166.7770851 -3 185 C-3.79277344 185.94617188 -4.58554687 186.89234375 -5.40234375 187.8671875 C-9.28754456 192.3776738 -9.28754456 192.3776738 -11 194 C-11.66 194 -12.32 194 -13 194 C-13 194.66 -13 195.32 -13 196 C-16.46833563 199.23353535 -20.2661276 202.08070506 -24 205 C-25.20849609 205.98226562 -25.20849609 205.98226562 -26.44140625 206.984375 C-45.5791809 221.85224487 -69.1657613 230.58730832 -93 234 C-93.82628906 234.13019531 -94.65257812 234.26039063 -95.50390625 234.39453125 C-114.77449925 236.90808686 -134.59001008 234.95730363 -153 229 C-153.76795898 228.75668945 -154.53591797 228.51337891 -155.32714844 228.26269531 C-157.80469815 227.47655912 -160.27804505 226.67854479 -162.75 225.875 C-163.53745605 225.62137695 -164.32491211 225.36775391 -165.13623047 225.10644531 C-170.76541677 223.23458323 -170.76541677 223.23458323 -173 221 C-174.67877406 220.27993251 -176.35881069 219.56255096 -178.04736328 218.86572266 C-181.33508817 217.40807419 -184.36933313 215.5549938 -187.4375 213.6875 C-188.08984619 213.29377197 -188.74219238 212.90004395 -189.41430664 212.49438477 C-194.16755297 209.59130006 -198.63875391 206.47119587 -203 203 C-201.70665529 200.15758238 -200.34409604 198.09224767 -198.14257812 195.88378906 C-197.28158508 195.01333954 -197.28158508 195.01333954 -196.40319824 194.12530518 C-195.47658386 193.20476349 -195.47658386 193.20476349 -194.53125 192.265625 C-193.89513794 191.62759949 -193.25902588 190.98957397 -192.6036377 190.33221436 C-191.26116613 188.98838426 -189.91617539 187.64706671 -188.56884766 186.30810547 C-186.50057835 184.25057535 -184.44322672 182.18255951 -182.38671875 180.11328125 C-181.08137029 178.80925375 -179.7754019 177.50584644 -178.46875 176.203125 C-177.85100708 175.58133362 -177.23326416 174.95954224 -176.59680176 174.31890869 C-172.22993073 170 -172.22993073 170 -170 170 C-170 175.61 -170 181.22 -170 187 C-157.79 187 -145.58 187 -133 187 C-133.69609375 181.63234375 -133.69609375 181.63234375 -134.40625 176.15625 C-138.36769226 136.42658783 -138.36769226 136.42658783 -126.72772217 121.33850098 C-117.05697805 110.15945877 -105.4487816 99.07990523 -93 91 C-92.34 91 -91.68 91 -91 91 C-91 98.92 -91 106.84 -91 115 C-98.26 115 -105.52 115 -113 115 C-102.63777776 133.84401365 -102.63777776 133.84401365 -91.87207031 152.45849609 C-87.809887 159.29004338 -83.84239031 166.17566325 -79.875 173.0625 C-79.36138916 173.95378098 -79.36138916 173.95378098 -78.83740234 174.86306763 C-76.89062731 178.24148461 -74.94485328 181.62047639 -73 185 C-69.88236266 181.18883419 -67.35463958 177.3133135 -65 173 C-64.20255715 171.56209256 -63.40434064 170.12461398 -62.60546875 168.6875 C-62.18313965 167.92566406 -61.76081055 167.16382813 -61.32568359 166.37890625 C-59.01701083 162.23605037 -56.66593823 158.11754633 -54.3125 154 C-53.8189502 153.13648926 -53.32540039 152.27297852 -52.81689453 151.38330078 C-48.70033709 144.19597167 -44.54480822 137.03154707 -40.375 129.875 C-39.77083252 128.83730469 -39.16666504 127.79960937 -38.54418945 126.73046875 C-37.98046631 125.76496094 -37.41674316 124.79945313 -36.8359375 123.8046875 C-36.33626465 122.94858887 -35.8365918 122.09249023 -35.32177734 121.21044922 C-34.26468953 119.44264851 -33.14254156 117.71381234 -32 116 C-42.89 115.505 -42.89 115.505 -54 115 C-55.56297759 105.60918675 -56.65541876 96.24665345 -57.25 86.75 C-57.29421837 86.04624615 -57.33843674 85.34249229 -57.38399506 84.61741257 C-58.38451365 66.51125045 -56.31763727 52.15265534 -44.18261719 38.1182518 C-39.10318093 32.46927944 -33.72279021 27.19459852 -28.125 22.0625 C-27.50726212 21.49462265 -26.88952423 20.9267453 -26.25306702 20.34165955 C-3.99101625 0 -3.99101625 0 0 0 Z " fill="#FDFCFC" transform="translate(425,222)"/>
<path d="M0 0 C0.95503418 0.30615234 1.91006836 0.61230469 2.89404297 0.92773438 C15.83260593 5.20460864 27.74865112 10.29779935 39 18 C39.62068359 18.41910645 40.24136719 18.83821289 40.88085938 19.27001953 C44.62073532 21.80044018 48.3237413 24.37764346 52 27 C50.70665529 29.84241762 49.34409604 31.90775233 47.14257812 34.11621094 C46.56858276 34.69651062 45.9945874 35.2768103 45.40319824 35.87469482 C44.47658386 36.79523651 44.47658386 36.79523651 43.53125 37.734375 C42.57708191 38.69141327 42.57708191 38.69141327 41.6036377 39.66778564 C40.26116613 41.01161574 38.91617539 42.35293329 37.56884766 43.69189453 C35.50057835 45.74942465 33.44322672 47.81744049 31.38671875 49.88671875 C30.08137029 51.19074625 28.7754019 52.49415356 27.46875 53.796875 C26.54213562 54.72956207 26.54213562 54.72956207 25.59680176 55.68109131 C21.22993073 60 21.22993073 60 19 60 C19 54.39 19 48.78 19 43 C6.79 43 -5.42 43 -18 43 C-17.5359375 46.5784375 -17.071875 50.156875 -16.59375 53.84375 C-12.63230774 93.57341217 -12.63230774 93.57341217 -24.27227783 108.66149902 C-33.94302195 119.84054123 -45.5512184 130.92009477 -58 139 C-58.66 139 -59.32 139 -60 139 C-60 131.08 -60 123.16 -60 115 C-52.74 114.67 -45.48 114.34 -38 114 C-38.88300781 112.48792969 -39.76601563 110.97585938 -40.67578125 109.41796875 C-46.33603399 99.72226824 -51.99570766 90.02621943 -57.625 80.3125 C-58.2754126 79.19113647 -58.2754126 79.19113647 -58.93896484 78.04711914 C-61.38466455 73.82153868 -63.80568825 69.5829895 -66.20703125 65.33203125 C-66.74569824 64.38094482 -67.28436523 63.4298584 -67.83935547 62.44995117 C-68.87740094 60.61505595 -69.91179506 58.77808852 -70.94189453 56.9387207 C-71.41353027 56.1055835 -71.88516602 55.27244629 -72.37109375 54.4140625 C-72.78286865 53.6813916 -73.19464355 52.9487207 -73.61889648 52.19384766 C-75.2318785 49.63166692 -77.07421052 47.3332813 -79 45 C-79.40613525 45.7120459 -79.81227051 46.4240918 -80.23071289 47.15771484 C-82.17399863 50.56384399 -84.11798988 53.96956973 -86.0625 57.375 C-86.42014435 58.00136353 -86.7777887 58.62772705 -87.14627075 59.27307129 C-92.38536475 68.44640851 -97.65027932 77.60431696 -102.9375 86.75 C-108.3594366 96.12993618 -113.71483158 105.5423302 -119 115 C-111.74 115 -104.48 115 -97 115 C-95.43702241 124.39081325 -94.34458124 133.75334655 -93.75 143.25 C-93.70578163 143.95375385 -93.66156326 144.65750771 -93.61600494 145.38258743 C-92.61548635 163.48874955 -94.68236273 177.84734466 -106.81738281 191.8817482 C-111.89681907 197.53072056 -117.27720979 202.80540148 -122.875 207.9375 C-123.49273788 208.50537735 -124.11047577 209.0732547 -124.74693298 209.65834045 C-147.00898375 230 -147.00898375 230 -151 230 C-158.61026756 220.88824722 -165.08542132 209.80041798 -170 199 C-170.46019531 198.05640625 -170.92039063 197.1128125 -171.39453125 196.140625 C-187.0599809 162.35084499 -186.54888213 122.42171184 -173.91796875 87.84765625 C-167.76507357 71.88927495 -158.86907965 58.17533395 -148 45 C-147.30390625 44.08089844 -146.6078125 43.16179687 -145.890625 42.21484375 C-145.26671875 41.48394531 -144.6428125 40.75304687 -144 40 C-143.34 40 -142.68 40 -142 40 C-142 39.34 -142 38.68 -142 38 C-141.34 38 -140.68 38 -140 38 C-140 37.34 -140 36.68 -140 36 C-139.34 36 -138.68 36 -138 36 C-138 35.34 -138 34.68 -138 34 C-130.7646597 27.14165138 -122.34148267 21.42074065 -114 16 C-112.95585937 15.319375 -111.91171875 14.63875 -110.8359375 13.9375 C-100.53835904 7.64590075 -89.49322293 3.5815513 -78 0 C-77.23075195 -0.24298828 -76.46150391 -0.48597656 -75.66894531 -0.73632812 C-53.18661815 -7.44597588 -22.30997313 -7.18022124 0 0 Z " fill="#FDFCFC" transform="translate(352,174)"/>
<path d="M0 0 C0.33 0 0.66 0 1 0 C1 20.79 1 41.58 1 63 C8.59 63 16.18 63 24 63 C22.96875 64.794375 21.9375 66.58875 20.875 68.4375 C17.58785687 74.17238072 14.35677957 79.93742745 11.13891602 85.71142578 C5.65599786 95.54501104 0.10974428 105.33670944 -5.5625 115.0625 C-6.13371582 116.0426709 -6.70493164 117.0228418 -7.29345703 118.03271484 C-10.44294073 123.4124996 -13.66762764 128.73150069 -17 134 C-19.65565787 131.60030318 -21.27998553 129.03555811 -23.046875 125.93359375 C-23.63718506 124.90331055 -24.22749512 123.87302734 -24.83569336 122.81152344 C-25.46741455 121.6980957 -26.09913574 120.58466797 -26.75 119.4375 C-27.41429248 118.2747779 -28.07909566 117.11234744 -28.74438477 115.95019531 C-30.13183502 113.52568552 -31.51705489 111.09992101 -32.90087891 108.67333984 C-35.58715836 103.967175 -38.2988001 99.27577888 -41.01049805 94.58422852 C-42.89511977 91.32332912 -44.77612539 88.06036889 -46.65625 84.796875 C-48.66964826 81.30290348 -50.68896049 77.81259698 -52.71875 74.328125 C-53.45834707 73.0520913 -54.19793184 71.77605046 -54.9375 70.5 C-55.54464844 69.4584375 -56.15179688 68.416875 -56.77734375 67.34375 C-58 65 -58 65 -58 63 C-50.74 63 -43.48 63 -36 63 C-36 54.75 -36 46.5 -36 38 C-35.34 38 -34.68 38 -34 38 C-34 37.34 -34 36.68 -34 36 C-33.34 36 -32.68 36 -32 36 C-32 35.34 -32 34.68 -32 34 C-31.34 34 -30.68 34 -30 34 C-30 33.34 -30 32.68 -30 32 C-29.34 32 -28.68 32 -28 32 C-28 31.34 -28 30.68 -28 30 C-27.34 30 -26.68 30 -26 30 C-26 29.34 -26 28.68 -26 28 C-25.34 28 -24.68 28 -24 28 C-24 27.34 -24 26.68 -24 26 C-23.34 26 -22.68 26 -22 26 C-22 25.34 -22 24.68 -22 24 C-21.34 24 -20.68 24 -20 24 C-20 23.34 -20 22.68 -20 22 C-19.34 22 -18.68 22 -18 22 C-18 21.34 -18 20.68 -18 20 C-17.34 20 -16.68 20 -16 20 C-16 19.34 -16 18.68 -16 18 C-15.34 18 -14.68 18 -14 18 C-14 17.34 -14 16.68 -14 16 C-13.34 16 -12.68 16 -12 16 C-12 15.34 -12 14.68 -12 14 C-11.34 14 -10.68 14 -10 14 C-10 13.34 -10 12.68 -10 12 C-9.34 12 -8.68 12 -8 12 C-8 11.34 -8 10.68 -8 10 C-7.34 10 -6.68 10 -6 10 C-6 9.34 -6 8.68 -6 8 C-5.34 8 -4.68 8 -4 8 C-4 7.34 -4 6.68 -4 6 C-3.34 6 -2.68 6 -2 6 C-2 4.68 -2 3.36 -2 2 C-1.34 2 -0.68 2 0 2 C0 1.34 0 0.68 0 0 Z " fill="#010102" transform="translate(370,274)"/>
<path d="M0 0 C2.90587217 2.70612255 4.88652012 5.23800277 6.734375 8.74609375 C7.22156006 9.65866943 7.70874512 10.57124512 8.21069336 11.51147461 C8.71866455 12.47706299 9.22663574 13.44265137 9.75 14.4375 C13.56951294 21.57382201 17.48068416 28.54065976 21.796875 35.38671875 C28.97627838 46.97229149 35.38320841 59.08977514 42 71 C34.41 71 26.82 71 19 71 C19 79.25 19 87.5 19 96 C18.34 96 17.68 96 17 96 C17 96.66 17 97.32 17 98 C16.34 98 15.68 98 15 98 C15 98.66 15 99.32 15 100 C14.34 100 13.68 100 13 100 C13 100.66 13 101.32 13 102 C12.34 102 11.68 102 11 102 C11 102.66 11 103.32 11 104 C10.34 104 9.68 104 9 104 C9 104.66 9 105.32 9 106 C8.34 106 7.68 106 7 106 C7 106.66 7 107.32 7 108 C6.34 108 5.68 108 5 108 C5 108.66 5 109.32 5 110 C4.34 110 3.68 110 3 110 C3 110.66 3 111.32 3 112 C2.34 112 1.68 112 1 112 C1 112.66 1 113.32 1 114 C0.34 114 -0.32 114 -1 114 C-1 114.66 -1 115.32 -1 116 C-1.66 116 -2.32 116 -3 116 C-3 116.66 -3 117.32 -3 118 C-3.66 118 -4.32 118 -5 118 C-5 118.66 -5 119.32 -5 120 C-5.66 120 -6.32 120 -7 120 C-7 120.66 -7 121.32 -7 122 C-7.66 122 -8.32 122 -9 122 C-9 122.66 -9 123.32 -9 124 C-9.66 124 -10.32 124 -11 124 C-11 124.66 -11 125.32 -11 126 C-11.66 126 -12.32 126 -13 126 C-13 126.66 -13 127.32 -13 128 C-13.66 128 -14.32 128 -15 128 C-15 128.66 -15 129.32 -15 130 C-15.66 130 -16.32 130 -17 130 C-17.33 131.32 -17.66 132.64 -18 134 C-18 113.21 -18 92.42 -18 71 C-25.26 71 -32.52 71 -40 71 C-38.57788545 66.73365634 -37.51358575 63.85545362 -35.3046875 60.1484375 C-34.76150879 59.22844971 -34.21833008 58.30846191 -33.65869141 57.3605957 C-33.07007324 56.37534912 -32.48145508 55.39010254 -31.875 54.375 C-30.6080838 52.23123129 -29.34251482 50.08666598 -28.078125 47.94140625 C-27.41361328 46.81492676 -26.74910156 45.68844727 -26.06445312 44.52783203 C-23.94567274 40.91943371 -21.86656193 37.28907507 -19.796875 33.65234375 C-19.44799225 33.03941467 -19.0991095 32.4264856 -18.73965454 31.79498291 C-17.05104323 28.82583768 -15.36587789 25.85478493 -13.68310547 22.88232422 C-9.28531597 15.14679503 -4.70885375 7.54890541 0 0 Z " fill="#010101" transform="translate(273,218)"/>
<path d="M0 0 C0.66 0 1.32 0 2 0 C2 18.15 2 36.3 2 55 C-10.21 55 -22.42 55 -35 55 C-35 38 -35 38 -34 36 C-33.34 36 -32.68 36 -32 36 C-32 35.34 -32 34.68 -32 34 C-31.34 34 -30.68 34 -30 34 C-30 33.34 -30 32.68 -30 32 C-29.34 32 -28.68 32 -28 32 C-28 31.34 -28 30.68 -28 30 C-27.34 30 -26.68 30 -26 30 C-26 29.34 -26 28.68 -26 28 C-25.34 28 -24.68 28 -24 28 C-24 27.34 -24 26.68 -24 26 C-23.34 26 -22.68 26 -22 26 C-22 25.34 -22 24.68 -22 24 C-21.34 24 -20.68 24 -20 24 C-20 23.34 -20 22.68 -20 22 C-19.34 22 -18.68 22 -18 22 C-18 21.34 -18 20.68 -18 20 C-17.34 20 -16.68 20 -16 20 C-16 19.34 -16 18.68 -16 18 C-15.34 18 -14.68 18 -14 18 C-14 17.34 -14 16.68 -14 16 C-13.34 16 -12.68 16 -12 16 C-12 15.34 -12 14.68 -12 14 C-11.34 14 -10.68 14 -10 14 C-10 13.34 -10 12.68 -10 12 C-9.34 12 -8.68 12 -8 12 C-8 11.34 -8 10.68 -8 10 C-7.34 10 -6.68 10 -6 10 C-6 9.34 -6 8.68 -6 8 C-5.34 8 -4.68 8 -4 8 C-4 7.34 -4 6.68 -4 6 C-3.34 6 -2.68 6 -2 6 C-2 5.34 -2 4.68 -2 4 C-1.34 4 -0.68 4 0 4 C0 2.68 0 1.36 0 0 Z " fill="#040404" transform="translate(290,354)"/>
<path d="M0 0 C12.21 0 24.42 0 37 0 C37 6.27 37 12.54 37 19 C36.01 19 35.02 19 34 19 C34 19.66 34 20.32 34 21 C33.34 21 32.68 21 32 21 C32 21.66 32 22.32 32 23 C31.34 23 30.68 23 30 23 C30 23.66 30 24.32 30 25 C29.34 25 28.68 25 28 25 C28 25.66 28 26.32 28 27 C27.34 27 26.68 27 26 27 C26 27.66 26 28.32 26 29 C25.34 29 24.68 29 24 29 C24 29.66 24 30.32 24 31 C23.34 31 22.68 31 22 31 C22 31.66 22 32.32 22 33 C21.34 33 20.68 33 20 33 C20 33.66 20 34.32 20 35 C19.34 35 18.68 35 18 35 C18 35.66 18 36.32 18 37 C17.34 37 16.68 37 16 37 C16 37.66 16 38.32 16 39 C15.34 39 14.68 39 14 39 C14 39.66 14 40.32 14 41 C13.34 41 12.68 41 12 41 C12 41.66 12 42.32 12 43 C11.34 43 10.68 43 10 43 C10 43.66 10 44.32 10 45 C9.34 45 8.68 45 8 45 C8 45.66 8 46.32 8 47 C7.34 47 6.68 47 6 47 C6 47.66 6 48.32 6 49 C5.34 49 4.68 49 4 49 C4 49.66 4 50.32 4 51 C3.34 51 2.68 51 2 51 C1.34 52.32 0.68 53.64 0 55 C0 36.85 0 18.7 0 0 Z " fill="#000000" transform="translate(334,217)"/>
<path d="M0 0 C0.99 0 1.98 0 3 0 C3.80395508 1.66113281 3.80395508 1.66113281 4 4 C2.44262717 6.03214625 0.96623559 7.66354509 -0.86328125 9.421875 C-1.37046188 9.92672424 -1.87764252 10.43157349 -2.40019226 10.95172119 C-3.47475119 12.01653531 -4.55532657 13.07530687 -5.64135742 14.12841797 C-7.30782231 15.74546103 -8.95485681 17.38043752 -10.59960938 19.01953125 C-11.64474578 20.05058274 -12.6909352 21.08056815 -13.73828125 22.109375 C-14.23419266 22.59992371 -14.73010406 23.09047241 -15.24104309 23.59588623 C-18.76675424 27 -18.76675424 27 -21 27 C-21 19.08 -21 11.16 -21 3 C-13.74 2.67 -6.48 2.34 1 2 C0.67 1.34 0.34 0.68 0 0 Z " fill="#FAF7F7" transform="translate(313,286)"/>
<path d="M0 0 C0 7.92 0 15.84 0 24 C-7.26 24 -14.52 24 -22 24 C-22.33 24.66 -22.66 25.32 -23 26 C-23.7902832 24.32519531 -23.7902832 24.32519531 -24 22 C-22.12573242 19.52636719 -22.12573242 19.52636719 -19.35546875 16.796875 C-18.87048416 16.3142218 -18.38549957 15.8315686 -17.88581848 15.33428955 C-16.85833667 14.31655126 -15.82483979 13.3048553 -14.78588867 12.29882812 C-13.19184121 10.75420661 -11.61726266 9.19168223 -10.04492188 7.625 C-2.3109424 0 -2.3109424 0 0 0 Z " fill="#F1EEED" transform="translate(334,313)"/>
<path d="M0 0 C12.21 0 24.42 0 37 0 C37 6.27 37 12.54 37 19 C36.34 18.34 35.68 17.68 35 17 C35 12.38 35 7.76 35 3 C24.11 3 13.22 3 2 3 C2.02320313 6.58617187 2.04640625 10.17234375 2.0703125 13.8671875 C2.08589653 17.3289352 2.09804839 20.79067904 2.10986328 24.25244141 C2.11993954 26.66391744 2.13360081 29.07538122 2.15087891 31.48681641 C2.1750559 34.94697085 2.18646669 38.4069642 2.1953125 41.8671875 C2.20563507 42.95055389 2.21595764 44.03392029 2.22659302 45.15011597 C2.22674408 46.1510025 2.22689514 47.15188904 2.22705078 48.18310547 C2.231492 49.06690887 2.23593323 49.95071228 2.24050903 50.86129761 C2 53 2 53 0 55 C0 36.85 0 18.7 0 0 Z " fill="#151414" transform="translate(334,217)"/>
<path d="M0 0 C5.5828617 0.65532462 11.09512967 1.4954732 16.625 2.5 C18.07547487 2.76067253 19.52599492 3.02109386 20.9765625 3.28125 C21.92136475 3.45237305 21.92136475 3.45237305 22.88525391 3.62695312 C23.58312012 3.75005859 24.28098633 3.87316406 25 4 C25.94456055 4.18087158 26.88912109 4.36174316 27.86230469 4.5480957 C31.06371718 5.00917682 33.99615534 5.05443491 37.2265625 4.94921875 C38.41483643 4.91111084 39.60311035 4.87300293 40.82739258 4.83374023 C42.70720825 4.76135132 42.70720825 4.76135132 44.625 4.6875 C45.90850342 4.64117432 47.19200684 4.59484863 48.5144043 4.54711914 C59.06469496 4.12500215 69.51884397 3.2567626 80 2 C80 2.66 80 3.32 80 4 C68.88490763 6.55231878 58.29405426 7.45012804 46.89941406 7.33618164 C44.37011981 7.31245422 41.84187876 7.31566852 39.3125 7.32226562 C25.41594665 7.29855571 12.44987219 5.69501983 -1 2 C-0.67 1.34 -0.34 0.68 0 0 Z " fill="#F31516" transform="translate(269,477)"/>
<path d="M0 0 C1.16582108 -0.01045349 1.16582108 -0.01045349 2.35519409 -0.02111816 C4.85924723 -0.03846388 7.36307673 -0.04484089 9.8671875 -0.046875 C11.14674316 -0.04838562 11.14674316 -0.04838562 12.45214844 -0.04992676 C30.5262493 -0.03547156 47.50606393 1.49637484 64.7421875 7.203125 C61.5672781 9.1109834 59.63633539 9.3640291 55.9921875 8.828125 C55.19296875 8.71726563 54.39375 8.60640625 53.5703125 8.4921875 C52.96703125 8.39679688 52.36375 8.30140625 51.7421875 8.203125 C51.7421875 7.543125 51.7421875 6.883125 51.7421875 6.203125 C50.7315625 6.079375 49.7209375 5.955625 48.6796875 5.828125 C47.03371448 5.62089818 45.38791063 5.41232709 43.7421875 5.203125 C42.49953125 5.04585937 41.256875 4.88859375 39.9765625 4.7265625 C38.6275682 4.55236166 37.27861009 4.37788026 35.9296875 4.203125 C34.64449219 4.038125 33.35929687 3.873125 32.03515625 3.703125 C28.7421875 3.203125 28.7421875 3.203125 25.7421875 2.203125 C24.37626567 2.11745254 23.00653892 2.08538853 21.63793945 2.08959961 C20.81731522 2.08967514 19.99669098 2.08975067 19.15119934 2.08982849 C17.8291877 2.09757042 17.8291877 2.09757042 16.48046875 2.10546875 C15.12177925 2.10759117 15.12177925 2.10759117 13.73564148 2.10975647 C10.84195659 2.11535499 7.94834901 2.12790719 5.0546875 2.140625 C3.09310008 2.14564019 1.13151144 2.15020307 -0.83007812 2.15429688 C-5.63935271 2.16532393 -10.4485695 2.18258753 -15.2578125 2.203125 C-15.2578125 1.873125 -15.2578125 1.543125 -15.2578125 1.203125 C-10.15300364 0.36944815 -5.1751991 0.03119357 0 0 Z " fill="#E91E1D" transform="translate(300.2578125,141.796875)"/>
<path d="M0 0 C0.33 0 0.66 0 1 0 C0.97003433 0.56614517 0.94006866 1.13229034 0.90919495 1.71559143 C0.11424933 17.13402526 -0.12648267 32.50077565 -0.0625 47.9375 C-0.05746392 50.09700414 -0.05290482 52.25650946 -0.04882812 54.41601562 C-0.03801481 59.61070693 -0.02087241 64.80533978 0 70 C-4.57855172 61.17089852 -3.21733032 49.74469915 -3.24023438 39.99902344 C-3.24987163 37.53285077 -3.28094813 35.06753829 -3.3125 32.6015625 C-3.38431481 21.44855533 -2.17684221 10.93346089 0 0 Z " fill="#E81412" transform="translate(145,274)"/>
<path d="M0 0 C0.66 0 1.32 0 2 0 C2.15714231 6.13459385 1.76208557 11.59322136 0.375 17.5625 C0.20258789 18.3261084 0.03017578 19.0897168 -0.14746094 19.87646484 C-2.0450759 27.85664285 -4.90155115 35.41912849 -8 43 C-8.66 43 -9.32 43 -10 43 C-10 43.99 -10 44.98 -10 46 C-10.66 46 -11.32 46 -12 46 C-11.38264469 40.72745194 -9.6428967 36.35021443 -7.625 31.5 C-3.49300503 21.2361161 -1.10302766 11.03027664 0 0 Z " fill="#E02626" transform="translate(455,330)"/>
<path d="M0 0 C0.33 0 0.66 0 1 0 C3.58138912 12.83418942 4.38790794 25.05436869 4.1875 38.125 C4.17239431 39.87368612 4.15871653 41.62238517 4.14648438 43.37109375 C4.11401697 47.58105957 4.06257632 51.79037856 4 56 C1.12167168 53.12167168 1.69859812 51.00014215 1.62109375 46.97265625 C1.60409927 46.26910507 1.5871048 45.56555389 1.56959534 44.84068298 C1.51641345 42.58138118 1.47625511 40.32209152 1.4375 38.0625 C1.37881532 35.11575955 1.31459748 32.16918436 1.24609375 29.22265625 C1.22971863 28.50953278 1.21334351 27.7964093 1.19647217 27.06167603 C1.01227223 19.98493585 0.49628801 12.98981224 -0.625 6 C-1 3 -1 3 0 0 Z " fill="#EF0D15" transform="translate(480,274)"/>
<path d="M0 0 C0 3.76603821 -1.07407243 4.77142649 -3.375 7.6875 C-4.00148438 8.49574219 -4.62796875 9.30398438 -5.2734375 10.13671875 C-5.84320313 10.75160156 -6.41296875 11.36648438 -7 12 C-7.66 12 -8.32 12 -9 12 C-9.33 12.99 -9.66 13.98 -10 15 C-10.99 15.495 -10.99 15.495 -12 16 C-12.33 16.99 -12.66 17.98 -13 19 C-14.33333333 19.66666667 -15.66666667 20.33333333 -17 21 C-17.474375 21.639375 -17.94875 22.27875 -18.4375 22.9375 C-20 25 -20 25 -22.25 26.3125 C-26.44158537 28.8846092 -30.77061529 32.54123057 -33 37 C-34.32 36.67 -35.64 36.34 -37 36 C-35.989375 35.15308594 -34.97875 34.30617188 -33.9375 33.43359375 C-26.96050466 27.32872283 -20.53077416 20.63539281 -14 14.0625 C-12.63955682 12.69703255 -11.27888169 11.33179614 -9.91796875 9.96679688 C-6.6092969 6.64719114 -3.30378678 3.32446727 0 0 Z " fill="#D9181A" transform="translate(329,277)"/>
<path d="M0 0 C0.66 0 1.32 0 2 0 C3.29924772 15.01352916 -3.15862326 30.05683499 -8 44 C-8.33 44 -8.66 44 -9 44 C-9.40571959 38.4100856 -7.90825432 33.9759946 -6.1875 28.75 C-3.18443369 19.26235839 -1.35548511 9.84510237 0 0 Z " fill="#D52A27" transform="translate(481,332)"/>
<path d="M0 0 C0.99 0.33 1.98 0.66 3 1 C2.70867187 1.45246094 2.41734375 1.90492188 2.1171875 2.37109375 C-4.7580174 13.80814844 -8.24007574 27.28260913 -12 40 C-12.66 40 -13.32 40 -14 40 C-14.20164516 35.50331289 -13.59903559 32.05707695 -12.125 27.8125 C-11.77695313 26.78769531 -11.42890625 25.76289063 -11.0703125 24.70703125 C-10 22 -10 22 -8 19 C-7.52536394 17.65839864 -7.0911918 16.30212689 -6.6875 14.9375 C-5.00686263 9.67034783 -2.57683274 4.87866753 0 0 Z " fill="#DE2628" transform="translate(185,242)"/>
<path d="M0 0 C0 3 0 3 -2.1875 5.375 C-3.115625 6.24125 -4.04375 7.1075 -5 8 C-6.66804922 9.66528297 -8.3345638 11.33210378 -10 13 C-10.84820312 13.825 -11.69640625 14.65 -12.5703125 15.5 C-13.83488281 16.7375 -13.83488281 16.7375 -15.125 18 C-15.97320312 18.825 -16.82140625 19.65 -17.6953125 20.5 C-19.89293994 22.88386705 -21.41106277 25.18953745 -23 28 C-24.6875 29.8125 -24.6875 29.8125 -26 31 C-26.99 30.67 -27.98 30.34 -29 30 C-22.7515266 22.46978846 -16.36340495 15.1686241 -9.4375 8.25 C-8.84243652 7.65429199 -8.24737305 7.05858398 -7.63427734 6.44482422 C-5.1523319 3.99423267 -2.92105442 1.94736961 0 0 Z " fill="#DA2125" transform="translate(203,181)"/>
<path d="M0 0 C2.31276507 2.80606953 3.51761683 5.11687414 4.4375 8.625 C6.24521917 15.04716023 8.28181699 21.42272548 12 27 C12.56120851 28.5064018 13.07998972 30.02907729 13.5625 31.5625 C14.27618593 33.81449343 14.94322352 35.88644704 16 38 C15.34 38.66 14.68 39.32 14 40 C9.35479295 31.72616617 5.93197084 23.41714378 3.0625 14.375 C2.75626709 13.41513184 2.45003418 12.45526367 2.13452148 11.46630859 C0.88121925 7.40055149 0 4.29944084 0 0 Z " fill="#DC1F1C" transform="translate(147,354)"/>
<path d="M0 0 C0.99 0.33 1.98 0.66 3 1 C-1.95 9.25 -6.9 17.5 -12 26 C-14.66217434 23.33782566 -16.36755937 21.34650329 -18 18 C-17.6875 15.6875 -17.6875 15.6875 -17 14 C-15.68 16.31 -14.36 18.62 -13 21 C-9.44055929 16.86092559 -6.86171271 12.44728261 -4.25 7.6875 C-3.83878906 6.94693359 -3.42757813 6.20636719 -3.00390625 5.44335938 C-1.99845215 3.63120373 -0.998647 1.8159158 0 0 Z " fill="#141416" transform="translate(365,382)"/>
<path d="M0 0 C0 0.66 0 1.32 0 2 C-9.72230086 6.58177397 -25.30030142 5.84622281 -36 5 C-36.66 4.34 -37.32 3.68 -38 3 C-37.17274414 2.94465088 -36.34548828 2.88930176 -35.49316406 2.83227539 C-32.41418347 2.6245458 -29.33544633 2.41357984 -26.25683594 2.20043945 C-24.27295611 2.06407788 -22.28882209 1.93143118 -20.3046875 1.79882812 C-18.42910156 1.66831055 -18.42910156 1.66831055 -16.515625 1.53515625 C-14.78747559 1.41732788 -14.78747559 1.41732788 -13.02441406 1.29711914 C-8.51948107 0.85455348 -4.58899412 -0.10429532 0 0 Z " fill="#D42226" transform="translate(342,454)"/>
<path d="M0 0 C1.31742187 -0.00773438 2.63484375 -0.01546875 3.9921875 -0.0234375 C5.2503125 -0.02085937 6.5084375 -0.01828125 7.8046875 -0.015625 C9.51760986 -0.01224121 9.51760986 -0.01224121 11.26513672 -0.00878906 C14.125 0.25 14.125 0.25 17.125 2.25 C15.7949292 2.28758423 15.7949292 2.28758423 14.43798828 2.32592773 C11.10179384 2.42190045 7.7657247 2.52107415 4.4296875 2.62231445 C2.99450309 2.66523495 1.55928154 2.7069334 0.12402344 2.74731445 C-7.90773461 2.97415281 -15.8916761 3.2698239 -23.875 4.25 C-23.875 3.59 -23.875 2.93 -23.875 2.25 C-15.880498 0.04582658 -8.2614407 -0.04937116 0 0 Z " fill="#E03A3C" transform="translate(307.875,167.75)"/>
<path d="M0 0 C14.91703393 -0.44553088 29.24159861 0.84470782 44 3 C44 3.99 44 4.98 44 6 C38.05902368 5.5858454 32.3347859 4.69613111 26.5 3.5 C17.71261586 1.72677059 8.94252977 1.30015436 0 1 C0 0.67 0 0.34 0 0 Z " fill="#F01111" transform="translate(304,167)"/>
<path d="M0 0 C6.39090718 1.44427281 12.69782259 3.2135041 19 5 C15.71984109 6.77322244 13.97027096 7.17209867 10.25 6.625 C9.45078125 6.51414063 8.6515625 6.40328125 7.828125 6.2890625 C7.22484375 6.19367188 6.6215625 6.09828125 6 6 C6 5.34 6 4.68 6 4 C4.948125 3.87625 3.89625 3.7525 2.8125 3.625 C-3.14462125 2.88438493 -9.07025197 1.93104276 -15 1 C-10.16715949 -2.22189367 -5.57141831 -0.90961932 0 0 Z " fill="#E01817" transform="translate(346,144)"/>
<path d="M0 0 C1.02668449 3.36252603 1.08914278 6.3645753 1.02172852 9.87011719 C1.00163223 11.05103943 0.98153595 12.23196167 0.96083069 13.44866943 C0.93379562 14.71857727 0.90676056 15.98848511 0.87890625 17.296875 C0.85529526 18.60078186 0.83168427 19.90468872 0.80735779 21.24810791 C0.74466232 24.70711335 0.67555497 28.16596191 0.60510254 31.62481689 C0.53428737 35.15735762 0.46954943 38.69000917 0.40429688 42.22265625 C0.27547212 49.14855794 0.13987187 56.07431285 0 63 C-0.33 63 -0.66 63 -1 63 C-1.33 42.87 -1.66 22.74 -2 2 C-1.34 2 -0.68 2 0 2 C0 1.34 0 0.68 0 0 Z " fill="#222325" transform="translate(370,274)"/>
<path d="M0 0 C0 3 0 3 -1 5 C-1.66 5 -2.32 5 -3 5 C-3 5.99 -3 6.98 -3 8 C-3.66 8 -4.32 8 -5 8 C-5.2475 8.639375 -5.495 9.27875 -5.75 9.9375 C-7 12 -7 12 -9.125 12.75 C-10.053125 12.87375 -10.053125 12.87375 -11 13 C-11 13.66 -11 14.32 -11 15 C-12.875 17.125 -12.875 17.125 -15 19 C-15.66 19 -16.32 19 -17 19 C-17 19.66 -17 20.32 -17 21 C-18.62626404 22.38232443 -20.2925002 23.71937515 -22 25 C-22.66 24.67 -23.32 24.34 -24 24 C-16.08 16.08 -8.16 8.16 0 0 Z " fill="#DD151F" transform="translate(403,203)"/>
<path d="M0 0 C0.33 0 0.66 0 1 0 C2.32189834 5.78734346 2.18409554 11.46485703 2.1875 17.375 C2.19974609 18.48617188 2.21199219 19.59734375 2.22460938 20.7421875 C2.23499421 26.55769476 1.99808652 31.51908282 0 37 C-0.33 37 -0.66 37 -1 37 C-0.67 24.79 -0.34 12.58 0 0 Z " fill="#E0C6BE" transform="translate(484,301)"/>
<path d="M0 0 C0.33 0 0.66 0 1 0 C1.23074219 1.09957031 1.46148437 2.19914062 1.69921875 3.33203125 C3.4392952 11.31883744 5.32464998 18.6525474 9.046875 25.99609375 C10 28 10 28 10 30 C7.63698961 29.05357858 6.28416371 28.50351199 5.01098633 26.24755859 C4.78693115 25.55484863 4.56287598 24.86213867 4.33203125 24.1484375 C4.07873047 23.37886719 3.82542969 22.60929687 3.56445312 21.81640625 C3.31630859 21.01074219 3.06816406 20.20507812 2.8125 19.375 C2.55275391 18.59253906 2.29300781 17.81007813 2.02539062 17.00390625 C-2.08984375 4.1796875 -2.08984375 4.1796875 0 0 Z " fill="#DD2C2A" transform="translate(172,342)"/>
<path d="M0 0 C5.65318706 0.67299846 11.26354539 1.47764592 16.875 2.4375 C18.01195312 2.62022461 18.01195312 2.62022461 19.171875 2.80664062 C24.76744596 3.76744596 24.76744596 3.76744596 27 6 C17.04337678 6.67886067 8.47818596 4.69430667 -1 2 C-0.67 1.34 -0.34 0.68 0 0 Z " fill="#D4312D" transform="translate(269,477)"/>
<path d="M0 0 C0.99 0 1.98 0 3 0 C3.33 1.32 3.66 2.64 4 4 C3.01 4.66 2.02 5.32 1 6 C1 5.34 1 4.68 1 4 C-5.93 4 -12.86 4 -20 4 C-20 11.59 -20 19.18 -20 27 C-20.33 27 -20.66 27 -21 27 C-21 19.08 -21 11.16 -21 3 C-13.74 2.67 -6.48 2.34 1 2 C0.67 1.34 0.34 0.68 0 0 Z " fill="#C8C6C5" transform="translate(313,286)"/>
<path d="M0 0 C0.66 0 1.32 0 2 0 C2 7.59 2 15.18 2 23 C1.01 23.33 0.02 23.66 -1 24 C-0.67 16.08 -0.34 8.16 0 0 Z " fill="#D92021" transform="translate(457,304)"/>
<path d="M0 0 C1.32 0.33 2.64 0.66 4 1 C3.01 2.485 3.01 2.485 2 4 C1.34 4 0.68 4 0 4 C0 4.99 0 5.98 0 7 C-0.99 7.33 -1.98 7.66 -3 8 C-3.33 8.66 -3.66 9.32 -4 10 C-4.66 10 -5.32 10 -6 10 C-6 10.66 -6 11.32 -6 12 C-7.32 12 -8.64 12 -10 12 C-10 11.34 -10 10.68 -10 10 C-9.34 10 -8.68 10 -8 10 C-8 9.34 -8 8.68 -8 8 C-7.34 8 -6.68 8 -6 8 C-6 7.34 -6 6.68 -6 6 C-5.34 6 -4.68 6 -4 6 C-4 5.34 -4 4.68 -4 4 C-3.34 4 -2.68 4 -2 4 C-2 3.34 -2 2.68 -2 2 C-1.34 2 -0.68 2 0 2 C0 1.34 0 0.68 0 0 Z " fill="#BA0607" transform="translate(288,316)"/>
<path d="M0 0 C2.81191561 2.81191561 3.53516103 6.16519078 4.6875 9.875 C4.92533203 10.59558594 5.16316406 11.31617188 5.40820312 12.05859375 C6.58394389 15.80303502 7.1851875 18.25823079 6 22 C6 21.34 6 20.68 6 20 C5.34 20 4.68 20 4 20 C3.32331051 17.79471728 2.65906502 15.58561391 2 13.375 C1.62875 12.14523437 1.2575 10.91546875 0.875 9.6484375 C0.06272281 6.26153174 -0.17041013 3.46145571 0 0 Z " fill="#E02C2C" transform="translate(473,252)"/>
<path d="M0 0 C0.33 0 0.66 0 1 0 C1.50400451 2.91602609 2.00334666 5.83272092 2.5 8.75 C2.64308594 9.575 2.78617187 10.4 2.93359375 11.25 C3.06894531 12.04921875 3.20429688 12.8484375 3.34375 13.671875 C3.46943359 14.4050293 3.59511719 15.13818359 3.72460938 15.89355469 C4 18 4 18 4 22 C3.01 21.67 2.02 21.34 1 21 C0.93941406 20.28714844 0.87882812 19.57429688 0.81640625 18.83984375 C0.26039951 12.39999436 0.26039951 12.39999436 -0.625 6 C-1 3 -1 3 0 0 Z " fill="#D73833" transform="translate(480,274)"/>
<path d="M0 0 C0 0.66 0 1.32 0 2 C-7.12950371 3.90120099 -13.63740707 4.22424141 -21 4 C-20.67 3.34 -20.34 2.68 -20 2 C-17.37601275 1.51967691 -14.83356365 1.15743199 -12.1875 0.875 C-11.46240234 0.78863281 -10.73730469 0.70226562 -9.99023438 0.61328125 C-6.62939388 0.22584676 -3.38741975 0 0 0 Z " fill="#DB211F" transform="translate(349,479)"/>
<path d="M0 0 C0.33 0 0.66 0 1 0 C1.33266291 6.20970773 0.45029331 10.28264895 -2 16 C-2.66 16 -3.32 16 -4 16 C-4 16.99 -4 17.98 -4 19 C-4.66 19 -5.32 19 -6 19 C-5.39124245 14.39583374 -4.15277044 10.43516676 -2.4375 6.125 C-1.75494141 4.39636719 -1.75494141 4.39636719 -1.05859375 2.6328125 C-0.70925781 1.76398438 -0.35992187 0.89515625 0 0 Z " fill="#DF302F" transform="translate(449,357)"/>
<path d="M0 0 C0.33 0 0.66 0 1 0 C1.73455125 8.52079453 -0.88991341 15.19146117 -4 23 C-4.33 23 -4.66 23 -5 23 C-5.34516053 17.59823772 -4.09439069 13.20981356 -2.5 8.125 C-2.26152344 7.34125 -2.02304687 6.5575 -1.77734375 5.75 C-1.19230107 3.83106 -0.59716749 1.91520146 0 0 Z " fill="#E21C1E" transform="translate(477,353)"/>
<path d="M0 0 C-6.50729293 4.33819529 -11.29198093 5.47191953 -19 5 C-16.01243632 3.00829088 -13.44575614 1.97092021 -10.0625 0.8125 C-9.02222656 0.44769531 -7.98195313 0.08289063 -6.91015625 -0.29296875 C-4.04543948 -0.98896034 -2.71018643 -1.02529944 0 0 Z " fill="#DF2326" transform="translate(268,149)"/>
<path d="M0 0 C-2.55834571 0.86881541 -5.12042461 1.7202133 -7.6875 2.5625 C-8.40873047 2.80935547 -9.12996094 3.05621094 -9.87304688 3.31054688 C-13.94352832 4.63020068 -16.78027933 5.38992772 -21 4 C-19.05916362 2.96026622 -17.28381041 2.07035636 -15.140625 1.5390625 C-12.0701235 0.76583402 -9.16764687 -0.42798658 -6.21875 -1.57421875 C-3.45757897 -2.10409136 -2.33456542 -1.46971505 0 0 Z " fill="#E01F20" transform="translate(374,474)"/>
<path d="M0 0 C2.52521234 3.22666021 4.65662251 6.60431967 6.75 10.125 C7.38421875 11.17945313 8.0184375 12.23390625 8.671875 13.3203125 C9.11015625 14.20460938 9.5484375 15.08890625 10 16 C9.67 16.66 9.34 17.32 9 18 C8.34 18 7.68 18 7 18 C6.03912864 16.10545176 5.08141031 14.20930419 4.125 12.3125 C3.59132813 11.25675781 3.05765625 10.20101563 2.5078125 9.11328125 C1.21311895 6.44004095 0.05976746 3.7728867 -1 1 C-0.67 0.67 -0.34 0.34 0 0 Z " fill="#1D1D1D" transform="translate(295,255)"/>
<path d="M0 0 C0 0.66 0 1.32 0 2 C-5.94 3.65 -11.88 5.3 -18 7 C-18 6.01 -18 5.02 -18 4 C-16.1291122 3.32187886 -14.25305707 2.6580054 -12.375 2 C-11.33085937 1.62875 -10.28671875 1.2575 -9.2109375 0.875 C-5.98225494 -0.00483564 -3.32755706 -0.15988262 0 0 Z " fill="#DC1E1F" transform="translate(282,171)"/>
<path d="M0 0 C0.66 0.33 1.32 0.66 2 1 C0.56717148 3.27390187 -0.87100533 5.54410141 -2.3125 7.8125 C-2.71662109 8.45509766 -3.12074219 9.09769531 -3.53710938 9.75976562 C-3.93349609 10.38173828 -4.32988281 11.00371094 -4.73828125 11.64453125 C-5.09962158 12.21534424 -5.46096191 12.78615723 -5.83325195 13.37426758 C-7.07691062 15.10716631 -8.45556212 16.53326969 -10 18 C-9.4308221 13.71947031 -7.91990078 10.90496315 -5.5625 7.3125 C-4.94503906 6.35988281 -4.32757813 5.40726562 -3.69140625 4.42578125 C-2 2 -2 2 0 0 Z " fill="#DD2126" transform="translate(460,398)"/>
<path d="M0 0 C0.33 0 0.66 0 1 0 C0.88928305 3.20899141 0.75885687 6.41689709 0.625 9.625 C0.5940625 10.52863281 0.563125 11.43226563 0.53125 12.36328125 C0.31706465 17.25384672 -0.12354155 21.40801632 -2 26 C-2.33 26 -2.66 26 -3 26 C-3.16589226 19.97258105 -2.57114133 14.42505207 -1.5 8.5 C-1.35691406 7.67757813 -1.21382812 6.85515625 -1.06640625 6.0078125 C-0.71693088 4.00415373 -0.35931844 2.00191702 0 0 Z " fill="#D84039" transform="translate(145,274)"/>
<path d="M0 0 C6.76215448 0.40939975 12.67162748 1.56953809 19 4 C19 4.66 19 5.32 19 6 C12.16018724 5.48378772 6.36123316 3.51409031 0 1 C0 0.67 0 0.34 0 0 Z " fill="#DC2E30" transform="translate(249,472)"/>
<path d="M0 0 C4.84719528 4.4373741 7.82510204 10.87074213 10 17 C9.34 17.33 8.68 17.66 8 18 C6.65590238 15.75583701 5.32470104 13.50557204 4 11.25 C3.6184375 10.61578125 3.236875 9.9815625 2.84375 9.328125 C0.82084348 5.86028524 0 4.10651746 0 0 Z " fill="#161618" transform="translate(336,377)"/>
<path d="M0 0 C1.86328125 0.16015625 1.86328125 0.16015625 4 1 C5.23046875 3.43359375 5.23046875 3.43359375 6.1875 6.4375 C6.51105469 7.42621094 6.83460938 8.41492188 7.16796875 9.43359375 C7.44253906 10.28050781 7.71710938 11.12742187 8 12 C8.33 12.66 8.66 13.32 9 14 C8.34 14.66 7.68 15.32 7 16 C5.82845707 13.71070947 4.66261926 11.41881638 3.5 9.125 C3.16613281 8.47402344 2.83226562 7.82304687 2.48828125 7.15234375 C0 2.2265625 0 2.2265625 0 0 Z " fill="#DB2A26" transform="translate(154,378)"/>
<path d="M0 0 C0 0.66 0 1.32 0 2 C-4.86051596 4.59227518 -9.65271133 4.18689553 -15 4 C-14.67 3.34 -14.34 2.68 -14 2 C-9.17574056 0.52819204 -5.07522852 -0.25376143 0 0 Z " fill="#E42023" transform="translate(342,454)"/>
<path d="M0 0 C0.33 0.99 0.66 1.98 1 3 C0.38125 3.2475 -0.2375 3.495 -0.875 3.75 C-3.11700865 4.80124259 -3.11700865 4.80124259 -3.875 6.84375 C-5.23859651 9.45730997 -6.87385333 10.8619415 -9.125 12.75 C-10.21167969 13.67039062 -10.21167969 13.67039062 -11.3203125 14.609375 C-11.87460938 15.06828125 -12.42890625 15.5271875 -13 16 C-13 13 -13 13 -11.80664062 11.46606445 C-11.26201172 10.937146 -10.71738281 10.40822754 -10.15625 9.86328125 C-9.56972656 9.28642578 -8.98320312 8.70957031 -8.37890625 8.11523438 C-7.75886719 7.52033203 -7.13882813 6.92542969 -6.5 6.3125 C-5.87996094 5.70599609 -5.25992188 5.09949219 -4.62109375 4.47460938 C-3.08735293 2.97626257 -1.54451802 1.48723507 0 0 Z " fill="#DA181E" transform="translate(251,355)"/>
<path d="M0 0 C6.53765933 -0.25144844 6.53765933 -0.25144844 8.78125 0.96875 C11.91488626 2.42522883 14.81500263 2.43416681 18.25 2.625 C19.51328125 2.69976562 20.7765625 2.77453125 22.078125 2.8515625 C23.04234375 2.90054687 24.0065625 2.94953125 25 3 C25 3.33 25 3.66 25 4 C16.3725342 4.20705918 8.40371809 4.21462689 0 2 C0 1.34 0 0.68 0 0 Z " fill="#E20D0C" transform="translate(295,456)"/>
<path d="M0 0 C2.46409136 2.92040458 4.70808681 5.93898897 6.8125 9.125 C7.25207031 9.78757812 7.69164062 10.45015625 8.14453125 11.1328125 C9 13 9 13 8 16 C3.95808535 11.50898372 1.56325559 6.41015011 -1 1 C-0.67 0.67 -0.34 0.34 0 0 Z " fill="#191A1C" transform="translate(322,353)"/>
<path d="M0 0 C0.66 0.66 1.32 1.32 2 2 C1.06915029 3.77433812 0.13005387 5.54435149 -0.8125 7.3125 C-1.33457031 8.29863281 -1.85664063 9.28476562 -2.39453125 10.30078125 C-3.7719876 12.61665068 -4.99530591 14.23611001 -7 16 C-7.33 15.34 -7.66 14.68 -8 14 C-6.75717988 11.54961707 -5.47117661 9.226675 -4.0625 6.875 C-3.48338867 5.88693359 -3.48338867 5.88693359 -2.89257812 4.87890625 C-1.93553422 3.248387 -0.96867185 1.62363816 0 0 Z " fill="#1B1B1B" transform="translate(250,257)"/>
<path d="M0 0 C0.66 0 1.32 0 2 0 C1.34 5.94 0.68 11.88 0 18 C-2 16 -2 16 -2.25 12.9375 C-1.96587454 8.462524 -1.10088601 4.33473866 0 0 Z " fill="#E51C1E" transform="translate(170,284)"/>
<path d="M0 0 C0.33 0 0.66 0 1 0 C1.42765417 6.41481258 -0.14256832 11.88595404 -2 18 C-2.66 18 -3.32 18 -4 18 C-4.22058508 13.40907294 -3.5361591 9.94544748 -2 5.625 C-1.62875 4.56539063 -1.2575 3.50578125 -0.875 2.4140625 C-0.58625 1.61742187 -0.2975 0.82078125 0 0 Z " fill="#E4191D" transform="translate(175,264)"/>
<path d="M0 0 C2.99381354 2.80466193 5.1993621 5.61184269 7.3125 9.125 C8.11107422 10.42824219 8.11107422 10.42824219 8.92578125 11.7578125 C9.28027344 12.49773437 9.63476562 13.23765625 10 14 C9.67 14.66 9.34 15.32 9 16 C8.34 16 7.68 16 7 16 C6.32880451 14.5437455 5.66318193 13.08492133 5 11.625 C4.62875 10.81289062 4.2575 10.00078125 3.875 9.1640625 C3 7 3 7 3 5 C2.34 5 1.68 5 1 5 C0.67 3.35 0.34 1.7 0 0 Z " fill="#DE2828" transform="translate(452,213)"/>
<path d="M0 0 C-3.40858586 3.40858586 -8.32201465 3.93008394 -13 4.125 C-13.66 4.08375 -14.32 4.0425 -15 4 C-15.33 3.34 -15.66 2.68 -16 2 C-5.62642369 -1.62870159 -5.62642369 -1.62870159 0 0 Z " fill="#DF2C2B" transform="translate(284,145)"/>
<path d="M0 0 C1.02867187 0.09925781 2.05734375 0.19851562 3.1171875 0.30078125 C5.8233966 0.64872242 8.45904802 1.11200852 11.125 1.6875 C11.125 2.0175 11.125 2.3475 11.125 2.6875 C4.26138499 4.28368954 -2.02054904 2.93470085 -8.875 1.6875 C-5.2951466 -0.69906893 -4.17288084 -0.43185675 0 0 Z " fill="#D92C2A" transform="translate(339.875,143.3125)"/>
<path d="M0 0 C4.06762061 1.35587354 4.86334252 3.9484594 6.6875 7.5625 C7.00783203 8.17802734 7.32816406 8.79355469 7.65820312 9.42773438 C8.44746371 10.9473555 9.22487915 12.47311811 10 14 C6.14325624 12.5243763 4.78176265 10.52993107 2.75 7 C2.22921875 6.113125 1.7084375 5.22625 1.171875 4.3125 C0 2 0 2 0 0 Z " fill="#191919" transform="translate(305,275)"/>
<path d="M0 0 C0.99 0 1.98 0 3 0 C3 1.98 3 3.96 3 6 C3.66 6 4.32 6 5 6 C6.1577506 9.47325181 6.06866652 12.36067448 6 16 C3.50063756 13.50063756 2.96276247 11.35191992 1.875 8 C1.52179688 6.9275 1.16859375 5.855 0.8046875 4.75 C0 2 0 2 0 0 Z " fill="#D82F2B" transform="translate(446,258)"/>
<path d="M0 0 C4.17906895 3.55994763 6.68559431 8.08663054 9 13 C9 13.66 9 14.32 9 15 C6 14 6 14 4.68359375 11.75 C4.06677734 10.38875 4.06677734 10.38875 3.4375 9 C1.97635423 5.29032372 1.97635423 5.29032372 -1 3 C-0.67 2.01 -0.34 1.02 0 0 Z " fill="#131313" transform="translate(273,218)"/>
<path d="M0 0 C0.33 0.99 0.66 1.98 1 3 C1.66 3 2.32 3 3 3 C3.33 4.98 3.66 6.96 4 9 C2.29115995 7.37660195 0.62553283 5.70680947 -1 4 C-1 3.34 -1 2.68 -1 2 C-3.64 3.98 -6.28 5.96 -9 8 C-6.51612903 3.03225806 -6.51612903 3.03225806 -4 1 C-1.8125 0.3125 -1.8125 0.3125 0 0 Z " fill="#DB2224" transform="translate(426,220)"/>
<path d="M0 0 C2.97 0 5.94 0 9 0 C9 0.33 9 0.66 9 1 C10.65 1.33 12.3 1.66 14 2 C14 2.66 14 3.32 14 4 C14.66 4 15.32 4 16 4 C16 4.66 16 5.32 16 6 C10.63904723 4.41078475 5.29156027 2.81027062 0 1 C0 0.67 0 0.34 0 0 Z " fill="#EBE0DC" transform="translate(362,148)"/>
<path d="M0 0 C2.49936244 2.49936244 3.03723753 4.64808008 4.125 8 C4.47820312 9.0725 4.83140625 10.145 5.1953125 11.25 C6 14 6 14 6 16 C5.34 16 4.68 16 4 16 C4 15.34 4 14.68 4 14 C3.34 14 2.68 14 2 14 C1.855625 13.236875 1.71125 12.47375 1.5625 11.6875 C1.0367406 8.91827092 1.0367406 8.91827092 0 6 C-0.03920815 4.00038436 -0.04443347 1.99950636 0 0 Z " fill="#ECE0DD" transform="translate(148,362)"/>
<path d="M0 0 C0.33 0 0.66 0 1 0 C0.38029501 9.80843419 0.38029501 9.80843419 -3 14 C-3.66 14 -4.32 14 -5 14 C-3.45730076 9.27934033 -1.92205381 4.58335908 0 0 Z " fill="#DA2929" transform="translate(157,240)"/>
<path d="M0 0 C1.32 0 2.64 0 4 0 C4 0.66 4 1.32 4 2 C3.34 2 2.68 2 2 2 C2 2.66 2 3.32 2 4 C1.34 4 0.68 4 0 4 C-0.33 4.99 -0.66 5.98 -1 7 C-2.65 7.33 -4.3 7.66 -6 8 C-6 7.34 -6 6.68 -6 6 C-5.34 6 -4.68 6 -4 6 C-4 5.34 -4 4.68 -4 4 C-3.34 4 -2.68 4 -2 4 C-2 3.34 -2 2.68 -2 2 C-1.34 2 -0.68 2 0 2 C0 1.34 0 0.68 0 0 Z " fill="#B6050A" transform="translate(360,244)"/>
<path d="M0 0 C3.74281699 2.38179263 6.97727468 4.74475735 10 8 C8 8 6 8 4 8 C4 7.34 4 6.68 4 6 C2.68 5.34 1.36 4.68 0 4 C0 2.68 0 1.36 0 0 Z " fill="#DC1A19" transform="translate(416,176)"/>
<path d="M0 0 C5.28 0 10.56 0 16 0 C16 0.99 16 1.98 16 3 C10.63108121 2.50130596 5.30764827 1.97772468 0 1 C0 0.67 0 0.34 0 0 Z " fill="#D52A29" transform="translate(332,170)"/>
<path d="M0 0 C12.66970387 2.89066059 12.66970387 2.89066059 18 6 C18 6.33 18 6.66 18 7 C12.25 7.125 12.25 7.125 10 6 C10 5.34 10 4.68 10 4 C8.9171875 4.0928125 8.9171875 4.0928125 7.8125 4.1875 C4.45655067 3.96377004 2.71059118 2.93613656 0 1 C0 0.67 0 0.34 0 0 Z " fill="#DA2A28" transform="translate(368,151)"/>
<path d="M0 0 C0.33 1.32 0.66 2.64 1 4 C0.34 4 -0.32 4 -1 4 C-1 4.66 -1 5.32 -1 6 C-1.66 6 -2.32 6 -3 6 C-3 6.66 -3 7.32 -3 8 C-3.66 8 -4.32 8 -5 8 C-5 8.66 -5 9.32 -5 10 C-6.32 9.67 -7.64 9.34 -9 9 C-6.03 6.03 -3.06 3.06 0 0 Z " fill="#EFDDDC" transform="translate(233,412)"/>
<path d="M0 0 C4 2 4 2 5.25 5.125 C5.4975 6.07375 5.745 7.0225 6 8 C6.66 8 7.32 8 8 8 C8.33 9.32 8.66 10.64 9 12 C8.01 12 7.02 12 6 12 C4.02 8.04 2.04 4.08 0 0 Z " fill="#D9201D" transform="translate(162,394)"/>
<path d="M0 0 C-1.06737018 3.09537351 -1.97518567 3.98455997 -4.8125 5.75 C-7.86558893 6.94728978 -9.77308179 7.28472808 -13 7 C-4.25 0 -4.25 0 0 0 Z " fill="#D82A28" transform="translate(390,435)"/>
<path d="M0 0 C0.33 0.66 0.66 1.32 1 2 C0.67 2.99 0.34 3.98 0 5 C-0.99 5 -1.98 5 -3 5 C-3 5.66 -3 6.32 -3 7 C-4.75 8.7265625 -4.75 8.7265625 -7 10.625 C-7.7425 11.25664062 -8.485 11.88828125 -9.25 12.5390625 C-9.8275 13.02117187 -10.405 13.50328125 -11 14 C-11 11 -11 11 -8.59375 8.30078125 C-7.5700032 7.29697757 -6.5383946 6.30114351 -5.5 5.3125 C-4.97535156 4.80138672 -4.45070312 4.29027344 -3.91015625 3.76367188 C-2.61339096 2.50227292 -1.30753883 1.25022788 0 0 Z " fill="#DA1B21" transform="translate(227,379)"/>
<path d="M0 0 C2.16874252 0.50603992 3.99967627 0.99983813 6 2 C6 2.66 6 3.32 6 4 C6.66 4 7.32 4 8 4 C8 4.66 8 5.32 8 6 C9.32 6.33 10.64 6.66 12 7 C11.67 7.99 11.34 8.98 11 10 C9.16375669 8.52444734 7.3310715 7.04446569 5.5 5.5625 C4.4790625 4.73878906 3.458125 3.91507812 2.40625 3.06640625 C1.6121875 2.38449219 0.818125 1.70257813 0 1 C0 0.67 0 0.34 0 0 Z " fill="#DC2829" transform="translate(198,440)"/>
<path d="M0 0 C0.33 0 0.66 0 1 0 C1.21192221 5.19209404 0.5912689 9.126739 -1 14 C-1.66 14 -2.32 14 -3 14 C-2.48594831 9.03083364 -1.76615118 4.70973649 0 0 Z " fill="#DD3131" transform="translate(151,254)"/>
<path d="M0 0 C0.99 0.33 1.98 0.66 3 1 C3 1.66 3 2.32 3 3 C2.34 3 1.68 3 1 3 C1 3.66 1 4.32 1 5 C0.2575 5.28875 -0.485 5.5775 -1.25 5.875 C-3.56900199 6.82368263 -5.76932676 7.86559779 -8 9 C-7.04270084 7.87411986 -6.08412105 6.7493285 -5.125 5.625 C-4.59132813 4.99851562 -4.05765625 4.37203125 -3.5078125 3.7265625 C-2.38567993 2.44163349 -1.20628025 1.20628025 0 0 Z " fill="#F3EBE9" transform="translate(443,425)"/>
<path d="M0 0 C0 3.49889647 -0.54120332 4.0553603 -2.75 6.625 C-3.26046875 7.23601562 -3.7709375 7.84703125 -4.296875 8.4765625 C-6.19607419 10.17538747 -7.51275949 10.5998787 -10 11 C-6.79239749 7.19364503 -3.59253891 3.45436433 0 0 Z " fill="#DC1A16" transform="translate(329,277)"/>
<path d="M0 0 C0.66 0.33 1.32 0.66 2 1 C-0.13790949 3.35170044 -2.00593401 4.88791835 -5 6 C-8.25 6.125 -8.25 6.125 -11 6 C-7.57874946 3.12614955 -4.16111563 1.54115394 0 0 Z " fill="#D82D2A" transform="translate(247,154)"/>
<path d="M0 0 C4.84590538 0.44053685 8.48141867 2.74505877 12 6 C12 6.66 12 7.32 12 8 C7.44328408 6.48109469 3.68276708 4.04597738 0 1 C0 0.67 0 0.34 0 0 Z " fill="#DC2C2C" transform="translate(210,450)"/>
<path d="M0 0 C1.96035175 0.44962196 3.91824309 0.90998248 5.875 1.375 C7.51082031 1.75785156 7.51082031 1.75785156 9.1796875 2.1484375 C12 3 12 3 14 5 C10.25 6.125 10.25 6.125 8 5 C8 4.34 8 3.68 8 3 C5.36 2.67 2.72 2.34 0 2 C0 1.34 0 0.68 0 0 Z " fill="#D73433" transform="translate(260,447)"/>
<path d="M0 0 C4.30764815 1.56641751 8.06171464 3.68336156 12 6 C12 6.66 12 7.32 12 8 C11.01 8 10.02 8 9 8 C8.67 7.34 8.34 6.68 8 6 C6.11986894 4.87775145 6.11986894 4.87775145 3.9375 3.875 C3.20402344 3.52179688 2.47054687 3.16859375 1.71484375 2.8046875 C1.14894531 2.53914063 0.58304688 2.27359375 0 2 C0 1.34 0 0.68 0 0 Z " fill="#D62621" transform="translate(236,435)"/>
<path d="M0 0 C0.66 0 1.32 0 2 0 C0.43358249 4.30764815 -1.68336156 8.06171464 -4 12 C-4.66 11.34 -5.32 10.68 -6 10 C-5.05065487 8.32819726 -4.09026687 6.66266064 -3.125 5 C-2.59132813 4.071875 -2.05765625 3.14375 -1.5078125 2.1875 C-1.01023437 1.465625 -0.51265625 0.74375 0 0 Z " fill="#181819" transform="translate(373,369)"/>
<path d="M0 0 C3.28670403 3.28670403 5 7.35868331 5 12 C4.34 12 3.68 12 3 12 C-0.42857143 4.71428571 -0.42857143 4.71428571 0 0 Z " fill="#D72F32" transform="translate(468,240)"/>
<path d="M0 0 C3.29963329 1.09987776 3.61064772 1.45586748 5.25 4.3125 C5.60578125 4.90675781 5.9615625 5.50101563 6.328125 6.11328125 C7.15994803 8.4491564 6.7945524 9.69274206 6 12 C4.99466333 10.37829621 3.99588093 8.75252763 3 7.125 C2.443125 6.22007812 1.88625 5.31515625 1.3125 4.3828125 C0 2 0 2 0 0 Z " fill="#D5241F" transform="translate(435,236)"/>
<path d="M0 0 C0.99 0.33 1.98 0.66 3 1 C1.625 2.5 1.625 2.5 0 4 C-0.66 4 -1.32 4 -2 4 C-2 4.66 -2 5.32 -2 6 C-2.66 6 -3.32 6 -4 6 C-4 6.66 -4 7.32 -4 8 C-4.66 8 -5.32 8 -6 8 C-6 8.66 -6 9.32 -6 10 C-6.66 10 -7.32 10 -8 10 C-6.34908222 5.70761377 -3.26245434 3.1206085 0 0 Z " fill="#E33138" transform="translate(216,204)"/>
<path d="M0 0 C4.58881061 0.37613202 7.94409696 0.76697473 12 3 C10.20866022 3.05391993 8.41686101 3.09275571 6.625 3.125 C5.62726563 3.14820313 4.62953125 3.17140625 3.6015625 3.1953125 C1 3 1 3 -1 1 C-0.67 0.67 -0.34 0.34 0 0 Z " fill="#E72123" transform="translate(269,477)"/>
<path d="M0 0 C0.75 1.5625 0.75 1.5625 1 4 C-0.13084437 6.50286409 -1.52139516 8.67007722 -3 11 C-3.66 11 -4.32 11 -5 11 C-3.77472971 6.94718288 -2.30119506 3.55639236 0 0 Z " fill="#D82D26" transform="translate(163,229)"/>
<path d="M0 0 C0.66 0 1.32 0 2 0 C1.45773019 3.79588866 -0.20127563 5.47211993 -3 8 C-3.99 7.67 -4.98 7.34 -6 7 C-5.04882866 5.8274869 -4.08882991 4.66212985 -3.125 3.5 C-2.59132812 2.8503125 -2.05765625 2.200625 -1.5078125 1.53125 C-0.76144531 0.77328125 -0.76144531 0.77328125 0 0 Z " fill="#DE2322" transform="translate(180,204)"/>
<path d="M0 0 C0.99 0 1.98 0 3 0 C3 1.98 3 3.96 3 6 C2.34 6 1.68 6 1 6 C0.67 6.66 0.34 7.32 0 8 C-0.79953138 4.71303767 -1.09658936 3.28976808 0 0 Z " fill="#EFEEED" transform="translate(477,362)"/>
<path d="M0 0 C2.86453858 3.41016497 4.34703566 6.90694544 6 11 C5.01 11 4.02 11 3 11 C3 9.68 3 8.36 3 7 C2.34 7 1.68 7 1 7 C0.67 4.69 0.34 2.38 0 0 Z " fill="#CE2D2C" transform="translate(182,373)"/>
<path d="M0 0 C0.33 0 0.66 0 1 0 C1.22151549 1.79008467 1.42682213 3.58218162 1.625 5.375 C1.74101562 6.37273437 1.85703125 7.37046875 1.9765625 8.3984375 C1.98429688 9.25695312 1.99203125 10.11546875 2 11 C1.34 11.66 0.68 12.32 0 13 C-0.19658808 11.58456585 -0.38187546 10.16755969 -0.5625 8.75 C-0.66691406 7.96109375 -0.77132812 7.1721875 -0.87890625 6.359375 C-1.00027349 3.99467126 -0.69633257 2.2488963 0 0 Z " fill="#D63633" transform="translate(170,330)"/>
<path d="M0 0 C0.33 0.66 0.66 1.32 1 2 C0.34 2 -0.32 2 -1 2 C-1.33 2.99 -1.66 3.98 -2 5 C-4.5625 6.1875 -4.5625 6.1875 -7 7 C-5.54744301 3.17053157 -3.57104439 1.87949705 0 0 Z " fill="#E70D0C" transform="translate(321,287)"/>
<path d="M0 0 C0.66 0 1.32 0 2 0 C1.67 1.65 1.34 3.3 1 5 C-0.65 5.33 -2.3 5.66 -4 6 C-4 5.34 -4 4.68 -4 4 C-3.34 4 -2.68 4 -2 4 C-2 3.34 -2 2.68 -2 2 C-1.34 2 -0.68 2 0 2 C0 1.34 0 0.68 0 0 Z " fill="#AF0609" transform="translate(340,264)"/>
<path d="M0 0 C3.08089673 2.77280706 4.68775452 5.06326356 6 9 C5.01 9 4.02 9 3 9 C0 3.375 0 3.375 0 0 Z " fill="#1A1A1A" transform="translate(288,244)"/>
<path d="M0 0 C-4.95 2.97 -4.95 2.97 -10 6 C-10.33 5.34 -10.66 4.68 -11 4 C-9.92892883 3.13050683 -8.84254056 2.27985795 -7.75 1.4375 C-7.14671875 0.96183594 -6.5434375 0.48617187 -5.921875 -0.00390625 C-4 -1 -4 -1 0 0 Z " fill="#DE201D" transform="translate(253,182)"/>
<path d="M0 0 C-0.99 1.485 -0.99 1.485 -2 3 C-3.9453125 3.29296875 -3.9453125 3.29296875 -6.125 3.1875 C-7.40375 3.125625 -8.6825 3.06375 -10 3 C-6.84439813 -0.15560187 -4.30999015 -1.43666338 0 0 Z " fill="#EEDBD7" transform="translate(260,181)"/>
<path d="M0 0 C-0.1875 1.875 -0.1875 1.875 -1 4 C-3.375 5.3125 -3.375 5.3125 -6 6 C-6.99 5.67 -7.98 5.34 -9 5 C-7.87926138 4.16094435 -6.75325453 3.32892169 -5.625 2.5 C-4.99851563 2.0359375 -4.37203125 1.571875 -3.7265625 1.09375 C-2 0 -2 0 0 0 Z " fill="#D82A26" transform="translate(222,168)"/>
<path d="M0 0 C2.97 1.65 5.94 3.3 9 5 C5 6 5 6 2.25 4.75 C1.5075 4.1725 0.765 3.595 0 3 C0 2.01 0 1.02 0 0 Z " fill="#D72622" transform="translate(398,164)"/>
<path d="M0 0 C0.66 0 1.32 0 2 0 C2.9765625 6.0546875 2.9765625 6.0546875 3 8 C2.34 8.66 1.68 9.32 1 10 C-0.1577506 6.52674819 -0.06866652 3.63932552 0 0 Z " fill="#D72724" transform="translate(145,344)"/>
<path d="M0 0 C1.16306443 3.54950034 0.92365049 6.55823948 0.5625 10.25 C0.40974609 11.86648438 0.40974609 11.86648438 0.25390625 13.515625 C0.17011719 14.33546875 0.08632813 15.1553125 0 16 C-0.33 16 -0.66 16 -1 16 C-1.33 11.38 -1.66 6.76 -2 2 C-1.34 2 -0.68 2 0 2 C0 1.34 0 0.68 0 0 Z " fill="#391D1D" transform="translate(370,274)"/>
<path d="M0 0 C1.32 0 2.64 0 4 0 C4 0.66 4 1.32 4 2 C3.34 2 2.68 2 2 2 C2 3.32 2 4.64 2 6 C1.34 6 0.68 6 0 6 C0 5.34 0 4.68 0 4 C-0.66 4 -1.32 4 -2 4 C-2 3.34 -2 2.68 -2 2 C-1.34 2 -0.68 2 0 2 C0 1.34 0 0.68 0 0 Z " fill="#C10406" transform="translate(350,254)"/>
<path d="M0 0 C0.33 0 0.66 0 1 0 C1 2.64 1 5.28 1 8 C-0.98 8.99 -0.98 8.99 -3 10 C-2.21302675 6.58978257 -1.12880057 3.31114834 0 0 Z " fill="#ECDFDB" transform="translate(183,250)"/>
<path d="M0 0 C4.875 4.625 4.875 4.625 6 8 C4.68 8 3.36 8 2 8 C0.74335022 5.09399739 0 3.20395416 0 0 Z " fill="#DB2526" transform="translate(442,200)"/>
<path d="M0 0 C0.99 0.33 1.98 0.66 3 1 C0.69 2.65 -1.62 4.3 -4 6 C-4.33 5.01 -4.66 4.02 -5 3 C-2.6875 1.4375 -2.6875 1.4375 0 0 Z " fill="#DE2422" transform="translate(226,196)"/>
<path d="M0 0 C2.97 0.33 5.94 0.66 9 1 C9.33 1.99 9.66 2.98 10 4 C6.7 3.01 3.4 2.02 0 1 C0 0.67 0 0.34 0 0 Z " fill="#D83330" transform="translate(358,176)"/>
<path d="M0 0 C0.99 0.33 1.98 0.66 3 1 C1.68 3.31 0.36 5.62 -1 8 C-1.66 7.67 -2.32 7.34 -3 7 C-1.125 2.25 -1.125 2.25 0 0 Z " fill="#1F1F21" transform="translate(365,382)"/>
<path d="M0 0 C0.99 0 1.98 0 3 0 C3 1.32 3 2.64 3 4 C2.34 4 1.68 4 1 4 C1 4.66 1 5.32 1 6 C0.34 6 -0.32 6 -1 6 C-1.042721 4.33388095 -1.04063832 2.66617115 -1 1 C-0.67 0.67 -0.34 0.34 0 0 Z " fill="#C50308" transform="translate(281,360)"/>
<path d="M0 0 C5.75 -0.125 5.75 -0.125 8 1 C8 1.99 8 2.98 8 4 C2.25 2.25 2.25 2.25 0 0 Z " fill="#D82C2E" transform="translate(236,466)"/>
<path d="M0 0 C0.66 0.33 1.32 0.66 2 1 C0.71937515 2.7074998 -0.61767557 4.37373596 -2 6 C-2.66 6 -3.32 6 -4 6 C-4.33 5.01 -4.66 4.02 -5 3 C-2.625 1.4375 -2.625 1.4375 0 0 Z " fill="#F3E9E5" transform="translate(404,458)"/>
<path d="M0 0 C2.64 0 5.28 0 8 0 C8 0.66 8 1.32 8 2 C8.66 2 9.32 2 10 2 C10 2.66 10 3.32 10 4 C6.7 3.01 3.4 2.02 0 1 C0 0.67 0 0.34 0 0 Z " fill="#F1D7D4" transform="translate(254,444)"/>
<path d="M0 0 C2.52588702 2.36292656 3.88820837 3.66462511 5 7 C4.01 7.33 3.02 7.66 2 8 C1.01 5.69 0.02 3.38 -1 1 C-0.67 0.67 -0.34 0.34 0 0 Z " fill="#141414" transform="translate(300,265)"/>
<path d="M0 0 C0.66 0.66 1.32 1.32 2 2 C0.68 4.31 -0.64 6.62 -2 9 C-2.66 8.34 -3.32 7.68 -4 7 C-2.68 4.69 -1.36 2.38 0 0 Z " fill="#1F1F1F" transform="translate(265,231)"/>
<path d="M0 0 C0.66 0.33 1.32 0.66 2 1 C-0.17424117 3.50037734 -1.73045798 4.43628586 -5 5 C-5.33 4.34 -5.66 3.68 -6 3 C-4.03533587 1.93224776 -2.03144641 0.93446535 0 0 Z " fill="#D72E2A" transform="translate(375,442)"/>
<path d="M0 0 C2 2 2 2 2 5 C1.34 5 0.68 5 0 5 C0 5.99 0 6.98 0 8 C-0.66 8 -1.32 8 -2 8 C-1.125 2.25 -1.125 2.25 0 0 Z " fill="#D63733" transform="translate(445,368)"/>
<path d="M0 0 C0.66 0 1.32 0 2 0 C2 1.32 2 2.64 2 4 C0.02 4.66 -1.96 5.32 -4 6 C-4 5.34 -4 4.68 -4 4 C-3.34 4 -2.68 4 -2 4 C-2 3.34 -2 2.68 -2 2 C-1.34 2 -0.68 2 0 2 C0 1.34 0 0.68 0 0 Z " fill="#01070D" transform="translate(276,370)"/>
<path d="M0 0 C0.33 1.32 0.66 2.64 1 4 C0.34 4 -0.32 4 -1 4 C-1 4.66 -1 5.32 -1 6 C-2.32 5.67 -3.64 5.34 -5 5 C-3.35 3.35 -1.7 1.7 0 0 Z " fill="#F2D9D9" transform="translate(309,336)"/>
<path d="M0 0 C0.33 1.32 0.66 2.64 1 4 C0.34 4 -0.32 4 -1 4 C-1 4.66 -1 5.32 -1 6 C-2.32 5.67 -3.64 5.34 -5 5 C-3.35 3.35 -1.7 1.7 0 0 Z " fill="#ECDCD7" transform="translate(413,232)"/>
<path d="M0 0 C2.52588702 2.36292656 3.88820837 3.66462511 5 7 C4.01 7 3.02 7 2 7 C1.67 6.01 1.34 5.02 1 4 C0.34 3.67 -0.32 3.34 -1 3 C-0.67 2.01 -0.34 1.02 0 0 Z " fill="#1E1E1E" transform="translate(273,218)"/>
<path d="M0 0 C1.14926266 0.95421808 2.29430541 1.91352045 3.4375 2.875 C4.07558594 3.40867188 4.71367187 3.94234375 5.37109375 4.4921875 C7 6 7 6 8 8 C5.04987143 6.63029745 2.4347778 5.17390875 0 3 C0 2.01 0 1.02 0 0 Z " fill="#DD1C22" transform="translate(430,188)"/>
<path d="M0 0 C1.65 0.33 3.3 0.66 5 1 C5.33 2.32 5.66 3.64 6 5 C3.69 4.01 1.38 3.02 -1 2 C-0.67 1.34 -0.34 0.68 0 0 Z " fill="#D52B29" transform="translate(374,181)"/>
<path d="M0 0 C3 1.1875 3 1.1875 5 3.1875 C1.28111761 2.68037967 -1.73454239 2.07141785 -5 0.1875 C-3 -0.8125 -3 -0.8125 0 0 Z " fill="#EC2323" transform="translate(353,172.8125)"/>
<path d="M0 0 C3.3 0.33 6.6 0.66 10 1 C5.8204355 3.78637633 3.85331323 2.79562512 -1 2 C-0.67 1.34 -0.34 0.68 0 0 Z " fill="#E41411" transform="translate(324,142)"/>
</svg>
