<svg version="1.1" id="Layer_1" xmlns="http://www.w3.org/2000/svg" xmlns:xlink="http://www.w3.org/1999/xlink" x="0px" y="0px"
	 width="100%" viewBox="0 0 250 250" enable-background="new 0 0 250 250" xml:space="preserve">
<path fill="#FFFEFE" opacity="1.000000" stroke="none" 
	d="
M174.000000,251.000000 
	C116.000000,251.000000 58.500008,251.000000 1.000008,251.000000 
	C1.000005,167.666672 1.000005,84.333351 1.000003,1.000019 
	C84.333321,1.000013 167.666641,1.000013 250.999969,1.000006 
	C250.999969,84.333313 250.999969,167.666626 250.999985,250.999969 
	C225.500000,251.000000 200.000000,251.000000 174.000000,251.000000 
M215.680817,167.810928 
	C215.440613,167.548843 215.200394,167.286774 214.415283,166.605286 
	C210.545700,159.432083 206.676132,152.258881 203.412308,144.625397 
	C203.554276,143.527374 204.166031,142.201645 203.762070,141.368240 
	C201.106003,135.888748 199.041580,129.894501 192.983871,127.025948 
	C192.983871,127.025948 192.927856,127.095673 192.989258,126.335312 
	C193.416824,124.812149 193.844406,123.288994 194.271988,121.765831 
	C192.946243,120.511765 192.734436,118.900482 192.202682,117.402786 
	C191.774094,116.195602 191.111130,114.997131 190.285568,114.020035 
	C188.222336,111.578087 186.074081,109.197304 183.808975,106.943733 
	C183.205750,106.343575 182.057922,106.290802 180.797516,105.622437 
	C180.752167,105.457222 180.706818,105.292000 181.304825,104.719841 
	C182.874420,101.237396 181.259857,100.026314 177.470505,99.681320 
	C177.282455,99.134132 177.094421,98.586945 177.347092,97.602081 
	C176.490784,95.579369 175.485260,93.603508 174.830368,91.517555 
	C174.390701,90.117142 174.447723,88.560783 174.282516,87.074196 
	C174.111923,85.570648 173.350998,84.059349 172.305847,82.780296 
	C170.589874,80.680321 169.872101,77.098480 165.985916,78.026237 
	C165.985916,78.026237 165.907578,78.116196 165.969925,77.326675 
	C165.559601,73.379562 165.149277,69.432449 164.758163,65.670090 
	C162.097839,64.798134 159.865234,64.066368 157.628036,63.262890 
	C157.628036,63.262890 157.558884,63.243332 157.944305,62.732883 
	C157.516403,62.258240 157.088501,61.783592 156.668060,61.283390 
	C156.668060,61.283390 156.684280,61.288113 156.877838,60.429214 
	C158.031326,54.971584 156.838898,49.966438 154.169876,45.432724 
	C151.851089,45.326340 149.757462,45.230286 147.133057,44.652702 
	C146.031906,42.614777 144.786865,40.640125 143.857590,38.526630 
	C141.418930,32.980221 138.977066,27.483225 132.944260,24.163877 
	C132.301620,24.094076 131.658997,24.024273 130.337830,23.977270 
	C129.900421,23.864309 129.462997,23.751348 128.854828,23.019077 
	C126.920876,21.432898 125.449356,21.325783 124.353645,24.724649 
	C123.731613,25.130428 123.109589,25.536207 121.813515,25.991535 
	C116.459793,30.203472 114.171768,36.127499 112.561287,42.587700 
	C112.561287,42.587700 112.539879,42.724518 111.800209,42.317558 
	C110.519150,43.248985 108.965111,43.962822 108.013412,45.156788 
	C105.982285,47.704929 104.263351,50.501919 101.980820,53.832748 
	C101.724136,55.500298 101.309235,58.195713 100.069588,60.969967 
	C98.617371,61.064823 97.165154,61.159679 94.363564,61.342674 
	C94.497589,65.151138 94.625443,68.784470 94.639145,72.689369 
	C94.639145,72.689369 94.401009,72.862793 94.143349,72.516785 
	C94.004890,72.510300 93.866432,72.503815 93.727974,72.497330 
	C93.924255,72.663139 94.120544,72.828941 94.156075,73.590065 
	C93.807411,74.076385 93.458755,74.562714 92.407318,75.109665 
	C91.497818,75.788506 90.298943,76.282928 89.728539,77.177895 
	C87.164215,81.201378 82.203751,84.236923 83.940735,90.859329 
	C64.609962,123.285004 45.238899,155.686783 25.979879,188.155014 
	C21.749361,195.287140 17.195856,202.362808 14.098462,209.995056 
	C10.805057,218.110275 15.066834,223.676941 24.944605,225.042786 
	C35.584698,225.052185 46.224789,225.061600 57.133484,225.332062 
	C57.470394,225.247955 57.807304,225.163864 58.933083,225.274307 
	C60.278549,225.236496 61.624012,225.198685 63.711487,225.501297 
	C72.149590,225.530609 80.587692,225.559921 89.815582,225.782669 
	C90.895226,225.735031 91.974861,225.687393 93.960213,225.864395 
	C101.642761,225.864700 109.325310,225.865005 117.929276,226.043442 
	C129.217606,226.057495 140.505920,226.071533 152.112183,226.331192 
	C152.484924,226.253494 152.857666,226.175797 154.103119,226.310944 
	C162.722046,226.358459 171.340988,226.405975 180.862839,226.732819 
	C194.984406,226.867767 209.106262,227.128922 223.227448,227.097214 
	C234.286377,227.072388 239.923798,219.782196 237.016937,209.389893 
	C236.225128,206.559143 234.772903,203.878281 233.383224,201.256088 
	C229.111023,193.194901 224.722305,185.195480 221.071884,176.894913 
	C221.713516,175.595779 222.355148,174.296646 223.275238,172.892212 
	C223.184326,172.929214 223.093414,172.966217 222.235413,172.918915 
	C220.722885,172.631119 219.210342,172.343323 217.245132,171.699249 
	C216.987839,171.188354 216.730545,170.677460 217.095154,169.873489 
	C216.576431,169.401733 216.057693,168.929977 215.571320,168.411484 
	C215.571320,168.411484 215.559586,168.355881 215.680817,167.810928 
M195.703110,126.568489 
	C195.988556,126.295967 196.273987,126.023445 196.559418,125.750923 
	C196.446457,125.632805 196.241486,125.405777 196.233795,125.412270 
	C195.932785,125.666557 195.649765,125.942116 195.703110,126.568489 
M220.369019,169.525620 
	C220.158615,169.471558 219.948212,169.417496 219.737808,169.363434 
	C219.872925,169.495987 220.008041,169.628555 220.369019,169.525620 
M121.589607,23.518280 
	C121.589607,23.518280 121.476959,23.586180 121.589607,23.518280 
M175.587204,89.517677 
	C175.587204,89.517677 175.476730,89.584023 175.587204,89.517677 
M136.585114,21.517221 
	C136.585114,21.517221 136.475769,21.581644 136.585114,21.517221 
z"/>
<path fill="#FD222A" opacity="1.000000" stroke="none" 
	d="
M202.806549,145.085678 
	C206.676132,152.258881 210.545700,159.432083 214.691299,167.074799 
	C215.164734,167.814819 215.362167,168.085358 215.559586,168.355881 
	C215.559586,168.355881 215.571320,168.411484 215.612915,168.674637 
	C215.927414,169.347382 216.200333,169.756973 216.473251,170.166565 
	C216.730545,170.677460 216.987839,171.188354 217.515076,172.207642 
	C218.649628,174.201370 219.514252,175.686707 220.378876,177.172043 
	C224.722305,185.195480 229.111023,193.194901 233.383224,201.256088 
	C234.772903,203.878281 236.225128,206.559143 237.016937,209.389893 
	C239.923798,219.782196 234.286377,227.072388 223.227448,227.097214 
	C209.106262,227.128922 194.984406,226.867767 180.259460,226.251724 
	C177.907486,225.514160 176.159485,225.039749 174.410156,225.034683 
	C155.606262,224.980103 136.802155,224.999588 117.703705,224.702728 
	C108.673470,224.275650 99.937737,224.106689 91.201607,224.083237 
	C90.477692,224.081299 89.751129,225.064026 89.025795,225.589249 
	C80.587692,225.559921 72.149590,225.530609 63.081223,224.999573 
	C50.718773,224.328995 38.986797,224.136322 27.254040,224.031281 
	C26.180136,224.021667 25.101212,224.572632 24.024620,224.863281 
	C15.066834,223.676941 10.805057,218.110275 14.098462,209.995056 
	C17.195856,202.362808 21.749361,195.287140 25.979879,188.155014 
	C45.238899,155.686783 64.609962,123.285004 84.296524,90.323837 
	C87.471565,84.875237 90.290833,79.962135 93.110100,75.049042 
	C93.458755,74.562714 93.807411,74.076385 94.256805,73.258980 
	C94.357544,72.927895 94.401009,72.862793 94.401009,72.862793 
	C94.401009,72.862793 94.639145,72.689369 94.927078,72.347618 
	C97.137238,68.643944 99.059471,65.282013 101.226959,61.693436 
	C105.161438,55.219364 108.850662,48.971943 112.539879,42.724518 
	C112.539879,42.724518 112.561287,42.587700 112.823822,42.306511 
	C116.220093,36.664207 119.353821,31.303097 122.487556,25.941986 
	C123.109589,25.536207 123.731613,25.130428 124.984482,24.511032 
	C126.752068,24.077738 127.888832,23.858061 129.025589,23.638386 
	C129.462997,23.751348 129.900421,23.864309 130.866455,24.175938 
	C131.939835,24.484552 132.484619,24.594501 133.029388,24.704449 
	C138.977066,27.483225 141.418930,32.980221 143.857590,38.526630 
	C144.786865,40.640125 146.031906,42.614777 147.491867,45.243706 
	C150.795212,50.985847 153.739746,56.136982 156.684265,61.288116 
	C156.684280,61.288113 156.668060,61.283390 156.694366,61.571308 
	C157.000061,62.320595 157.279465,62.781967 157.558868,63.243336 
	C157.558884,63.243332 157.628036,63.262890 157.715454,63.638390 
	C160.504440,68.714653 163.206009,73.415428 165.907578,78.116196 
	C165.907578,78.116196 165.985916,78.026237 165.980515,78.409302 
	C169.618866,85.208168 173.262619,91.623970 176.906372,98.039764 
	C177.094421,98.586945 177.282455,99.134132 177.738846,100.182480 
	C178.891953,102.164680 179.776718,103.645729 180.661469,105.126785 
	C180.706818,105.292000 180.752167,105.457222 181.034073,106.147095 
	C185.156372,113.479721 189.042114,120.287697 192.927856,127.095673 
	C192.927856,127.095673 192.983871,127.025948 192.972610,127.396843 
	C196.243088,133.540390 199.524811,139.313034 202.806549,145.085678 
M104.000000,104.000305 
	C104.000000,104.000305 104.028000,104.027138 103.315727,104.115547 
	C102.691879,105.540535 102.068039,106.965523 101.124886,108.368675 
	C101.124886,108.368675 101.437309,108.438171 100.747574,108.234795 
	C95.634949,110.088089 92.727150,113.126015 94.516777,119.247131 
	C93.096725,122.262253 91.886169,125.398544 90.223389,128.273285 
	C77.153198,150.869949 63.981445,173.407883 50.900192,195.998184 
	C50.021687,197.515289 49.626007,199.311966 49.315960,201.597031 
	C49.707851,201.880386 50.101280,202.413528 50.491417,202.411133 
	C66.924995,202.310028 83.358627,202.188385 99.791077,201.977875 
	C101.524727,201.955673 103.251244,201.375793 105.854530,200.851913 
	C108.238983,200.916153 110.623444,200.980408 112.985146,201.676620 
	C112.999809,202.097183 113.014481,202.517746 113.583336,203.563232 
	C126.308334,203.563232 139.033325,203.563232 151.758331,203.563232 
	C151.757919,203.366104 151.757523,203.168991 151.757126,202.971863 
	C140.155197,202.971863 128.553268,202.971863 117.396492,202.470764 
	C118.591599,201.998260 119.786705,201.525757 121.905212,200.865860 
	C131.942749,200.927628 141.980286,200.989395 152.424576,201.574066 
	C153.610703,201.399536 154.796814,201.225006 156.807861,200.859085 
	C158.211395,200.923737 159.614914,200.988373 161.609787,201.637451 
	C173.505783,201.741653 185.401718,201.858429 197.297943,201.910858 
	C197.858887,201.913315 198.422333,201.343658 199.653641,200.835220 
	C200.107513,200.905304 200.561401,200.975388 201.417221,201.550034 
	C202.254745,201.247070 203.092255,200.944122 203.535721,200.114761 
	C200.718796,194.846481 197.944824,189.554703 195.077408,184.314056 
	C183.354767,162.889069 171.603622,141.479691 160.451492,119.611099 
	C159.490921,115.018463 158.539474,110.423859 157.544022,105.838791 
	C157.491959,105.598930 157.094818,105.364449 156.809433,105.255051 
	C151.366699,103.168533 150.765198,97.629295 148.155380,93.470863 
	C146.595139,90.984818 143.938904,89.186623 141.261597,86.647705 
	C137.004227,79.061546 132.746872,71.475388 128.189423,63.354507 
	C120.671310,75.989914 113.497040,88.047440 105.621880,100.288551 
	C105.090775,101.534233 104.559662,102.779922 104.000000,104.000305 
z"/>
<path fill="#FD0C24" opacity="1.000000" stroke="none" 
	d="
M117.998100,224.998779 
	C136.802155,224.999588 155.606262,224.980103 174.410156,225.034683 
	C176.159485,225.039749 177.907486,225.514160 179.808014,226.112061 
	C171.340988,226.405975 162.722046,226.358459 153.307693,226.163666 
	C152.272934,226.039444 152.033585,226.062515 151.794250,226.085571 
	C140.505920,226.071533 129.217606,226.057495 117.469391,225.737732 
	C117.009514,225.432037 117.015930,224.998779 117.261475,224.999329 
	C117.507019,224.999863 117.998100,224.998779 117.998100,224.998779 
z"/>
<path fill="#F8F2F0" opacity="1.000000" stroke="none" 
	d="
M156.781052,60.858665 
	C153.739746,56.136982 150.795212,50.985847 147.757263,45.484470 
	C149.757462,45.230286 151.851089,45.326340 154.169876,45.432724 
	C156.838898,49.966438 158.031326,54.971584 156.781052,60.858665 
z"/>
<path fill="#F8F2F0" opacity="1.000000" stroke="none" 
	d="
M192.958557,126.715492 
	C189.042114,120.287697 185.156372,113.479721 181.215378,106.329231 
	C182.057922,106.290802 183.205750,106.343575 183.808975,106.943733 
	C186.074081,109.197304 188.222336,111.578087 190.285568,114.020035 
	C191.111130,114.997131 191.774094,116.195602 192.202682,117.402786 
	C192.734436,118.900482 192.946243,120.511765 194.271988,121.765831 
	C193.844406,123.288994 193.416824,124.812149 192.958557,126.715492 
z"/>
<path fill="#F8F2F0" opacity="1.000000" stroke="none" 
	d="
M177.126740,97.820923 
	C173.262619,91.623970 169.618866,85.208168 165.927460,78.436569 
	C169.872101,77.098480 170.589874,80.680321 172.305847,82.780296 
	C173.350998,84.059349 174.111923,85.570648 174.282516,87.074196 
	C174.447723,88.560783 174.390701,90.117142 174.830368,91.517555 
	C175.485260,93.603508 176.490784,95.579369 177.126740,97.820923 
z"/>
<path fill="#F8F0ED" opacity="1.000000" stroke="none" 
	d="
M112.170044,42.521038 
	C108.850662,48.971943 105.161438,55.219364 101.216354,61.435295 
	C100.938431,61.232910 100.916382,61.062019 100.894333,60.891129 
	C101.309235,58.195713 101.724136,55.500298 101.980820,53.832748 
	C104.263351,50.501919 105.982285,47.704929 108.013412,45.156788 
	C108.965111,43.962822 110.519150,43.248985 112.170044,42.521038 
z"/>
<path fill="#F8F2F0" opacity="1.000000" stroke="none" 
	d="
M203.109436,144.855530 
	C199.524811,139.313034 196.243088,133.540390 192.928986,127.406708 
	C199.041580,129.894501 201.106003,135.888748 203.762070,141.368240 
	C204.166031,142.201645 203.554276,143.527374 203.109436,144.855530 
z"/>
<path fill="#F8F2F0" opacity="1.000000" stroke="none" 
	d="
M165.938751,77.721436 
	C163.206009,73.415428 160.504440,68.714653 157.717758,63.674244 
	C159.865234,64.066368 162.097839,64.798134 164.758163,65.670090 
	C165.149277,69.432449 165.559601,73.379562 165.938751,77.721436 
z"/>
<path fill="#F6F0ED" opacity="1.000000" stroke="none" 
	d="
M100.481956,60.930550 
	C100.916382,61.062019 100.938431,61.232910 100.971100,61.661942 
	C99.059471,65.282013 97.137238,68.643944 94.984161,72.211830 
	C94.625443,68.784470 94.497589,65.151138 94.363564,61.342674 
	C97.165154,61.159679 98.617371,61.064823 100.481956,60.930550 
z"/>
<path fill="#F6F0ED" opacity="1.000000" stroke="none" 
	d="
M92.758713,75.079353 
	C90.290833,79.962135 87.471565,84.875237 84.374466,89.989944 
	C82.203751,84.236923 87.164215,81.201378 89.728539,77.177895 
	C90.298943,76.282928 91.497818,75.788506 92.758713,75.079353 
z"/>
<path fill="#FB051F" opacity="1.000000" stroke="none" 
	d="
M24.484612,224.953033 
	C25.101212,224.572632 26.180136,224.021667 27.254040,224.031281 
	C38.986797,224.136322 50.718773,224.328995 62.710220,224.829361 
	C61.624012,225.198685 60.278549,225.236496 58.219120,225.132111 
	C57.291729,225.016968 57.078304,225.043991 56.864880,225.070999 
	C46.224789,225.061600 35.584698,225.052185 24.484612,224.953033 
z"/>
<path fill="#F8F0ED" opacity="1.000000" stroke="none" 
	d="
M122.150536,25.966763 
	C119.353821,31.303097 116.220093,36.664207 112.851242,42.242928 
	C114.171768,36.127499 116.459793,30.203472 122.150536,25.966763 
z"/>
<path fill="#FA2017" opacity="1.000000" stroke="none" 
	d="
M117.703705,224.702728 
	C117.998100,224.998779 117.507019,224.999863 116.791031,224.996429 
	C108.401527,225.208588 100.728012,225.424179 93.054504,225.639755 
	C91.974861,225.687393 90.895226,225.735031 89.420685,225.685959 
	C89.751129,225.064026 90.477692,224.081299 91.201607,224.083237 
	C99.937737,224.106689 108.673470,224.275650 117.703705,224.702728 
z"/>
<path fill="#FD222A" opacity="1.000000" stroke="none" 
	d="
M93.507355,225.752075 
	C100.728012,225.424179 108.401527,225.208588 116.545486,224.995880 
	C117.015930,224.998779 117.009514,225.432037 117.008682,225.648682 
	C109.325310,225.865005 101.642761,225.864700 93.507355,225.752075 
z"/>
<path fill="#F6F2EE" opacity="1.000000" stroke="none" 
	d="
M220.725372,177.033478 
	C219.514252,175.686707 218.649628,174.201370 217.741409,172.385773 
	C219.210342,172.343323 220.722885,172.631119 222.617706,172.959457 
	C223.000000,173.000000 222.996780,172.997528 222.996765,172.997528 
	C222.355148,174.296646 221.713516,175.595779 220.725372,177.033478 
z"/>
<path fill="#F8F2F0" opacity="1.000000" stroke="none" 
	d="
M180.983154,104.923309 
	C179.776718,103.645729 178.891953,102.164680 177.980423,100.352776 
	C181.259857,100.026314 182.874420,101.237396 180.983154,104.923309 
z"/>
<path fill="#F8F0ED" opacity="1.000000" stroke="none" 
	d="
M128.940216,23.328732 
	C127.888832,23.858061 126.752068,24.077738 125.270111,24.272598 
	C125.449356,21.325783 126.920876,21.432898 128.940216,23.328732 
z"/>
<path fill="#F8F0ED" opacity="1.000000" stroke="none" 
	d="
M132.986816,24.434164 
	C132.484619,24.594501 131.939835,24.484552 131.205719,24.164536 
	C131.658997,24.024273 132.301620,24.094076 132.986816,24.434164 
z"/>
<path fill="#F8F2F0" opacity="1.000000" stroke="none" 
	d="
M195.533752,126.391693 
	C195.649765,125.942116 195.932785,125.666557 196.233795,125.412270 
	C196.241486,125.405777 196.446457,125.632805 196.559418,125.750931 
	C196.273987,126.023445 195.988556,126.295967 195.533752,126.391693 
z"/>
<path fill="#F6F2EE" opacity="1.000000" stroke="none" 
	d="
M216.784210,170.020020 
	C216.200333,169.756973 215.927414,169.347382 215.596725,168.697998 
	C216.057693,168.929977 216.576431,169.401733 216.784210,170.020020 
z"/>
<path fill="#F8F2F0" opacity="1.000000" stroke="none" 
	d="
M157.751587,62.988113 
	C157.279465,62.781967 157.000061,62.320595 156.690628,61.584084 
	C157.088501,61.783592 157.516403,62.258240 157.751587,62.988113 
z"/>
<path fill="#F6F2EE" opacity="1.000000" stroke="none" 
	d="
M220.256088,169.643372 
	C220.008041,169.628555 219.872925,169.495987 219.737808,169.363434 
	C219.948212,169.417496 220.158615,169.471558 220.256088,169.643372 
z"/>
<path fill="#F8F0ED" opacity="1.000000" stroke="none" 
	d="
M121.533279,23.552231 
	C121.476959,23.586180 121.589607,23.518280 121.533279,23.552231 
z"/>
<path fill="#F8F2F0" opacity="1.000000" stroke="none" 
	d="
M175.531967,89.550850 
	C175.476730,89.584023 175.587204,89.517677 175.531967,89.550850 
z"/>
<path fill="#F6F2EE" opacity="1.000000" stroke="none" 
	d="
M223.001251,173.001617 
	C223.093414,172.966217 223.184326,172.929214 223.136017,172.944870 
	C222.996780,172.997528 223.000000,173.000000 223.001251,173.001617 
z"/>
<path fill="#F6F2EE" opacity="1.000000" stroke="none" 
	d="
M215.620209,168.083405 
	C215.362167,168.085358 215.164734,167.814819 214.963745,167.284485 
	C215.200394,167.286774 215.440613,167.548843 215.620209,168.083405 
z"/>
<path fill="#FD222A" opacity="1.000000" stroke="none" 
	d="
M56.999184,225.201538 
	C57.078304,225.043991 57.291729,225.016968 57.824684,225.034851 
	C57.807304,225.163864 57.470394,225.247955 56.999184,225.201538 
z"/>
<path fill="#F6F0ED" opacity="1.000000" stroke="none" 
	d="
M94.272179,72.689789 
	C94.401009,72.862793 94.357544,72.927895 94.337189,72.961319 
	C94.120544,72.828941 93.924255,72.663139 93.727974,72.497330 
	C93.866432,72.503815 94.004890,72.510300 94.272179,72.689789 
z"/>
<path fill="#FD222A" opacity="1.000000" stroke="none" 
	d="
M151.953217,226.208374 
	C152.033585,226.062515 152.272934,226.039444 152.871338,226.057251 
	C152.857666,226.175797 152.484924,226.253494 151.953217,226.208374 
z"/>
<path fill="#F8F0ED" opacity="1.000000" stroke="none" 
	d="
M136.530441,21.549433 
	C136.475769,21.581644 136.585114,21.517221 136.530441,21.549433 
z"/>
<path fill="#FCFAF9" opacity="1.000000" stroke="none" 
	d="
M159.862976,120.064568 
	C171.603622,141.479691 183.354767,162.889069 195.077408,184.314056 
	C197.944824,189.554703 200.718796,194.846481 203.369507,200.439041 
	C202.473953,200.857361 201.744614,200.951416 201.015274,201.045471 
	C200.561401,200.975388 200.107513,200.905304 198.859161,200.846283 
	C185.715942,200.922577 173.367203,200.987793 161.018448,201.053009 
	C159.614914,200.988373 158.211395,200.923737 156.001984,200.890717 
	C154.136673,200.965286 153.077240,201.008224 152.017822,201.051147 
	C141.980286,200.989395 131.942749,200.927628 121.004456,200.896301 
	C117.738434,200.966049 115.373161,201.005341 113.007896,201.044647 
	C110.623444,200.980408 108.238983,200.916153 104.953659,200.894012 
	C85.703773,200.950287 67.354767,200.964447 49.005764,200.978607 
	C49.626007,199.311966 50.021687,197.515289 50.900192,195.998184 
	C63.981445,173.407883 77.153198,150.869949 90.223389,128.273285 
	C91.886169,125.398544 93.096725,122.262253 95.087051,119.010880 
	C97.583977,115.329140 99.510643,111.883659 101.437309,108.438171 
	C101.437309,108.438171 101.124886,108.368675 101.548882,108.204178 
	C102.657921,106.702171 103.342964,105.364655 104.028000,104.027145 
	C104.028000,104.027138 104.000000,104.000305 104.292465,103.835114 
	C105.164200,102.481598 105.743484,101.293282 106.322769,100.104965 
	C113.497040,88.047440 120.671310,75.989914 128.189423,63.354507 
	C132.746872,71.475388 137.004227,79.061546 141.575287,87.219849 
	C147.880325,98.549522 153.871643,109.307045 159.862976,120.064568 
M93.637535,196.407135 
	C97.308327,197.002548 100.966484,197.850464 104.657822,198.035095 
	C105.725266,198.088486 107.176735,196.420288 107.939583,195.216522 
	C109.094948,193.393387 109.579887,191.143143 110.747055,189.330231 
	C112.877419,186.021225 115.489792,183.016663 117.543785,179.666077 
	C119.486824,176.496490 121.233925,173.931320 124.813911,177.909958 
	C126.677719,176.212585 128.214157,174.713120 129.856522,173.340439 
	C132.512772,171.120346 134.617477,170.178741 137.572128,173.750397 
	C143.430832,180.832581 149.573990,180.279465 156.404373,172.766998 
	C156.404373,172.766998 156.440536,172.925888 157.086472,172.865570 
	C159.695007,170.612518 162.289795,168.343323 164.915009,166.109894 
	C169.953842,161.823029 172.001938,162.454330 173.936722,168.884537 
	C174.170013,169.659851 174.280960,170.472000 174.826355,171.817413 
	C175.236511,171.546921 175.646683,171.276428 176.320572,170.225784 
	C176.400925,167.137314 176.481293,164.048859 176.952606,160.559784 
	C176.936417,160.373901 176.920242,160.188019 177.207626,159.241272 
	C175.846939,158.532364 174.266800,156.975098 173.163330,157.260544 
	C168.232773,158.535965 163.311584,160.045059 158.646225,162.067657 
	C156.196060,163.129898 154.279785,165.423584 152.229691,167.074783 
	C148.645050,161.564041 145.381653,156.547165 142.783691,151.120636 
	C142.981918,150.951782 143.180161,150.782928 143.776550,150.859619 
	C143.864746,151.168274 144.027542,151.430618 144.466888,151.911575 
	C144.466888,151.911575 144.792130,151.983429 145.118698,152.631104 
	C146.734589,153.892395 148.350494,155.153671 150.758362,157.033142 
	C152.622940,154.181442 154.315964,151.592117 156.718048,149.068222 
	C157.876816,148.411636 159.035583,147.755051 160.777252,146.911987 
	C161.317261,146.319733 161.857254,145.727493 162.911530,144.796783 
	C162.336990,144.031815 161.762451,143.266846 160.955139,141.902664 
	C159.684494,140.950729 158.413864,139.998779 157.706543,138.823059 
	C156.809326,138.562256 155.912094,138.301437 154.290482,138.055710 
	C153.645584,138.000595 153.000687,137.945496 151.818344,137.844482 
	C155.429459,134.404404 153.025681,132.587219 150.075989,130.232574 
	C148.438507,129.009857 146.801025,127.787125 144.776230,126.018173 
	C142.006119,124.665207 139.346054,122.514496 136.444519,122.114250 
	C128.837662,121.064934 127.764778,119.723434 130.369049,112.225807 
	C132.295395,106.679962 130.100159,100.590446 125.642761,99.115219 
	C120.541176,97.426804 111.410217,101.105606 109.209549,104.798836 
	C110.400681,108.087036 110.825371,110.719170 112.201958,112.684601 
	C113.866913,115.061745 116.010399,117.825806 118.540611,118.696182 
	C121.872932,119.842476 121.582001,121.246140 120.951134,123.802544 
	C119.814789,128.407333 119.020721,133.095596 118.009247,137.732758 
	C117.664413,139.313660 117.316628,142.071976 116.593781,142.202164 
	C111.712128,143.081299 106.732491,143.433701 101.777290,143.875000 
	C100.518387,143.987122 98.883072,143.314255 98.062317,143.900436 
	C97.298958,144.445633 97.390739,146.188171 97.106049,147.403580 
	C98.558022,147.673004 100.006813,148.152924 101.462524,148.174957 
	C107.345253,148.263977 113.230110,148.211868 120.151695,148.211868 
	C119.273727,153.242126 119.370270,157.543915 117.727631,161.025070 
	C114.870056,167.081024 109.821243,172.256821 107.739029,178.486160 
	C105.095894,186.393585 102.942596,193.546738 92.363823,194.071182 
	C92.594093,194.652985 92.824356,195.234787 93.637535,196.407135 
z"/>
<path fill="#F42027" opacity="1.000000" stroke="none" 
	d="
M160.157227,119.837830 
	C153.871643,109.307045 147.880325,98.549522 141.832153,87.435616 
	C143.938904,89.186623 146.595139,90.984818 148.155380,93.470863 
	C150.765198,97.629295 151.366699,103.168533 156.809433,105.255051 
	C157.094818,105.364449 157.491959,105.598930 157.544022,105.838791 
	C158.539474,110.423859 159.490921,115.018463 160.157227,119.837830 
z"/>
<path fill="#FA030D" opacity="1.000000" stroke="none" 
	d="
M49.160862,201.287811 
	C67.354767,200.964447 85.703773,200.950287 104.516922,200.995377 
	C103.251244,201.375793 101.524727,201.955673 99.791077,201.977875 
	C83.358627,202.188385 66.924995,202.310028 50.491417,202.411133 
	C50.101280,202.413528 49.707851,201.880386 49.160862,201.287811 
z"/>
<path fill="#F92135" opacity="1.000000" stroke="none" 
	d="
M116.951347,202.971863 
	C128.553268,202.971863 140.155197,202.971863 151.757126,202.971863 
	C151.757523,203.168991 151.757919,203.366104 151.758331,203.563232 
	C139.033325,203.563232 126.308334,203.563232 113.698318,203.259460 
	C114.859314,202.961060 115.905334,202.966461 116.951347,202.971863 
z"/>
<path fill="#FA030D" opacity="1.000000" stroke="none" 
	d="
M161.314117,201.345230 
	C173.367203,200.987793 185.715942,200.922577 198.524658,200.948914 
	C198.422333,201.343658 197.858887,201.913315 197.297943,201.910858 
	C185.401718,201.858429 173.505783,201.741653 161.314117,201.345230 
z"/>
<path fill="#F62229" opacity="1.000000" stroke="none" 
	d="
M101.092438,108.336487 
	C99.510643,111.883659 97.583977,115.329140 95.325470,118.859322 
	C92.727150,113.126015 95.634949,110.088089 101.092438,108.336487 
z"/>
<path fill="#FA030D" opacity="1.000000" stroke="none" 
	d="
M117.173920,202.721313 
	C115.905334,202.966461 114.859314,202.961060 113.421219,202.946991 
	C113.014481,202.517746 112.999809,202.097183 112.996521,201.360626 
	C115.373161,201.005341 117.738434,200.966049 120.542755,200.990005 
	C119.786705,201.525757 118.591599,201.998260 117.173920,202.721313 
z"/>
<path fill="#F62229" opacity="1.000000" stroke="none" 
	d="
M103.671867,104.071350 
	C103.342964,105.364655 102.657921,106.702171 101.708542,108.215103 
	C102.068039,106.965523 102.691879,105.540535 103.671867,104.071350 
z"/>
<path fill="#F62229" opacity="1.000000" stroke="none" 
	d="
M105.972321,100.196754 
	C105.743484,101.293282 105.164200,102.481598 104.306732,103.847763 
	C104.559662,102.779922 105.090775,101.534233 105.972321,100.196754 
z"/>
<path fill="#FA030D" opacity="1.000000" stroke="none" 
	d="
M152.221191,201.312607 
	C153.077240,201.008224 154.136673,200.965286 155.589508,200.986420 
	C154.796814,201.225006 153.610703,201.399536 152.221191,201.312607 
z"/>
<path fill="#FA030D" opacity="1.000000" stroke="none" 
	d="
M201.216248,201.297760 
	C201.744614,200.951416 202.473953,200.857361 203.566528,200.702240 
	C203.092255,200.944122 202.254745,201.247070 201.216248,201.297760 
z"/>
<path fill="#070707" opacity="1.000000" stroke="none" 
	d="
M150.414398,130.828461 
	C153.025681,132.587219 155.429459,134.404404 151.818344,137.844482 
	C153.000687,137.945496 153.645584,138.000595 154.839478,138.294830 
	C155.973373,138.704926 156.558304,138.875885 157.143219,139.046844 
	C158.413864,139.998779 159.684494,140.950729 161.049896,142.597778 
	C161.562195,143.906998 161.979721,144.521118 162.397263,145.135239 
	C161.857254,145.727493 161.317261,146.319733 160.250824,146.882324 
	C158.153961,146.562592 156.583527,146.272522 154.894363,145.717682 
	C153.434097,144.060394 152.092529,142.667908 149.915451,140.408173 
	C149.716888,140.503250 147.242172,141.017426 147.112930,141.882126 
	C146.788910,144.050095 147.526642,146.376724 147.659256,147.338928 
	C151.068512,148.106964 153.056000,148.554703 155.284851,149.024292 
	C155.526230,149.046143 156.009003,149.002792 156.009003,149.002792 
	C154.315964,151.592117 152.622940,154.181442 150.758362,157.033142 
	C148.350494,155.153671 146.734589,153.892395 145.263947,152.287964 
	C145.730026,151.565720 146.050858,151.186630 146.371704,150.807556 
	C145.669464,151.087265 144.967209,151.366974 144.264954,151.646698 
	C144.027542,151.430618 143.864746,151.168274 143.405090,150.524368 
	C142.694412,150.055664 142.355179,149.922195 141.995667,149.537903 
	C141.770920,149.064850 141.566483,148.842636 141.362061,148.620407 
	C141.241226,149.079926 141.120392,149.539444 141.010986,150.252716 
	C141.387711,150.847733 141.752991,151.189026 142.118271,151.530304 
	C145.381653,156.547165 148.645050,161.564041 152.229691,167.074783 
	C154.279785,165.423584 156.196060,163.129898 158.646225,162.067657 
	C163.311584,160.045059 168.232773,158.535965 173.163330,157.260544 
	C174.266800,156.975098 175.846939,158.532364 176.890533,159.676529 
	C176.493210,160.194336 176.335297,160.290802 176.347137,160.356857 
	C176.384277,160.564194 176.485336,160.760071 176.561646,160.960388 
	C176.481293,164.048859 176.400925,167.137314 175.781433,170.648987 
	C174.977707,171.137161 174.713150,171.202133 174.448608,171.267090 
	C174.280960,170.472000 174.170013,169.659851 173.936722,168.884537 
	C172.001938,162.454330 169.953842,161.823029 164.915009,166.109894 
	C162.289795,168.343323 159.695007,170.612518 156.857910,172.556580 
	C156.310822,172.105682 155.992264,171.963760 155.673721,171.821854 
	C155.929474,172.157822 156.185211,172.493805 156.440964,172.829773 
	C149.573990,180.279465 143.430832,180.832581 137.572128,173.750397 
	C134.617477,170.178741 132.512772,171.120346 129.856522,173.340439 
	C128.214157,174.713120 126.677719,176.212585 124.813911,177.909958 
	C121.233925,173.931320 119.486824,176.496490 117.543785,179.666077 
	C115.489792,183.016663 112.877419,186.021225 110.747055,189.330231 
	C109.579887,191.143143 109.094948,193.393387 107.939583,195.216522 
	C107.176735,196.420288 105.725266,198.088486 104.657822,198.035095 
	C100.966484,197.850464 97.308327,197.002548 93.332855,195.811066 
	C93.018959,194.813690 93.009758,194.412354 93.000549,194.011032 
	C102.942596,193.546738 105.095894,186.393585 107.739029,178.486160 
	C109.821243,172.256821 114.870056,167.081024 117.727631,161.025070 
	C119.370270,157.543915 119.273727,153.242126 120.151695,148.211868 
	C113.230110,148.211868 107.345253,148.263977 101.462524,148.174957 
	C100.006813,148.152924 98.558022,147.673004 97.106049,147.403580 
	C97.390739,146.188171 97.298958,144.445633 98.062317,143.900436 
	C98.883072,143.314255 100.518387,143.987122 101.777290,143.875000 
	C106.732491,143.433701 111.712128,143.081299 116.593781,142.202164 
	C117.316628,142.071976 117.664413,139.313660 118.009247,137.732758 
	C119.020721,133.095596 119.814789,128.407333 120.951134,123.802544 
	C121.582001,121.246140 121.872932,119.842476 118.540611,118.696182 
	C116.010399,117.825806 113.866913,115.061745 112.201958,112.684601 
	C110.825371,110.719170 110.400681,108.087036 109.209549,104.798836 
	C111.410217,101.105606 120.541176,97.426804 125.642761,99.115219 
	C130.100159,100.590446 132.295395,106.679962 130.369049,112.225807 
	C127.764778,119.723434 128.837662,121.064934 136.444519,122.114250 
	C139.346054,122.514496 142.006119,124.665207 144.947266,126.666054 
	C145.752274,130.190353 146.813766,132.422546 150.414398,130.828461 
M145.891403,134.722488 
	C145.805527,134.673126 145.719666,134.623749 145.633789,134.574387 
	C145.755859,134.716263 145.877930,134.858124 146.023849,135.479858 
	C146.141205,135.754700 146.258575,136.029556 146.375931,136.304398 
	C146.499466,136.217697 146.623016,136.130981 146.746552,136.044281 
	C146.497696,135.696182 146.248856,135.348099 145.891403,134.722488 
M141.840347,139.355194 
	C142.746475,139.355194 143.652603,139.355194 144.558731,139.355194 
	C144.521942,139.004303 144.485153,138.653412 144.448349,138.302521 
	C143.375626,138.197525 142.302902,138.092514 141.068527,137.238480 
	C140.718185,136.563141 140.367859,135.887787 140.017517,135.212448 
	C139.698730,135.318405 139.379929,135.424377 139.061127,135.530334 
	C139.266312,137.809570 139.471512,140.088806 139.676712,142.368042 
	C140.057358,142.348251 140.438019,142.328476 140.818665,142.308685 
	C140.968735,141.221207 141.118820,140.133713 141.840347,139.355194 
M133.409012,151.001846 
	C134.887482,150.595078 136.365967,150.188309 136.518387,150.146362 
	C135.100983,147.735275 133.942261,145.764206 132.811981,143.841537 
	C129.711533,146.086044 129.421448,149.318726 133.409012,151.001846 
M142.435837,144.689163 
	C142.661240,144.994553 142.886642,145.299942 143.112045,145.605331 
	C143.303238,145.417542 143.494431,145.229752 143.685638,145.041962 
	C143.394302,144.803696 143.102966,144.565430 142.435837,144.689163 
M137.144089,142.181778 
	C137.202835,142.803894 137.261581,143.426010 137.320328,144.048126 
	C137.536774,144.014618 137.753220,143.981094 137.969650,143.947571 
	C137.828369,143.246490 137.687088,142.545425 137.144089,142.181778 
M138.419312,146.527328 
	C138.195358,146.471008 137.971405,146.414703 137.747452,146.358383 
	C137.892273,146.499786 138.037079,146.641205 138.419312,146.527328 
M150.401031,151.479401 
	C150.401031,151.479401 150.520706,151.405334 150.401031,151.479401 
M135.398727,142.481766 
	C135.398727,142.481766 135.521942,142.405670 135.398727,142.481766 
z"/>
<path fill="#121212" opacity="1.000000" stroke="none" 
	d="
M156.363525,149.035507 
	C156.009003,149.002792 155.526230,149.046143 155.265869,148.647278 
	C155.008026,147.493103 155.010544,146.737793 155.013077,145.982468 
	C156.583527,146.272522 158.153961,146.562592 159.959381,146.975555 
	C159.035583,147.755051 157.876816,148.411636 156.363525,149.035507 
z"/>
<path fill="#0E0E0E" opacity="1.000000" stroke="none" 
	d="
M150.245193,130.530518 
	C146.813766,132.422546 145.752274,130.190353 145.140930,126.939163 
	C146.801025,127.787125 148.438507,129.009857 150.245193,130.530518 
z"/>
<path fill="#0E0E0E" opacity="1.000000" stroke="none" 
	d="
M157.424881,138.934952 
	C156.558304,138.875885 155.973373,138.704926 155.201660,138.287292 
	C155.912094,138.301437 156.809326,138.562256 157.424881,138.934952 
z"/>
<path fill="#121212" opacity="1.000000" stroke="none" 
	d="
M162.654388,144.966003 
	C161.979721,144.521118 161.562195,143.906998 161.166275,142.897385 
	C161.762451,143.266846 162.336990,144.031815 162.654388,144.966003 
z"/>
<path fill="#121212" opacity="1.000000" stroke="none" 
	d="
M144.365921,151.779144 
	C144.967209,151.366974 145.669464,151.087265 146.371704,150.807556 
	C146.050858,151.186630 145.730026,151.565720 145.100662,151.964127 
	C144.792130,151.983429 144.466888,151.911575 144.365921,151.779144 
z"/>
<path fill="#0F0F0F" opacity="1.000000" stroke="none" 
	d="
M92.682190,194.041107 
	C93.009758,194.412354 93.018959,194.813690 93.041397,195.515808 
	C92.824356,195.234787 92.594093,194.652985 92.682190,194.041107 
z"/>
<path fill="#0D0D0D" opacity="1.000000" stroke="none" 
	d="
M156.422668,172.798386 
	C156.185211,172.493805 155.929474,172.157822 155.673721,171.821854 
	C155.992264,171.963760 156.310822,172.105682 156.534943,172.586731 
	C156.440536,172.925888 156.404373,172.766998 156.422668,172.798386 
z"/>
<path fill="#171717" opacity="1.000000" stroke="none" 
	d="
M176.757126,160.760086 
	C176.485336,160.760071 176.384277,160.564194 176.347137,160.356857 
	C176.335297,160.290802 176.493210,160.194336 176.738754,160.056946 
	C176.920242,160.188019 176.936417,160.373901 176.757126,160.760086 
z"/>
<path fill="#171717" opacity="1.000000" stroke="none" 
	d="
M174.637482,171.542252 
	C174.713150,171.202133 174.977707,171.137161 175.649567,171.039062 
	C175.646683,171.276428 175.236511,171.546921 174.637482,171.542252 
z"/>
<path fill="#171717" opacity="1.000000" stroke="none" 
	d="
M154.894363,145.717682 
	C155.010544,146.737793 155.008026,147.493103 155.024506,148.625427 
	C153.056000,148.554703 151.068512,148.106964 147.659256,147.338928 
	C147.526642,146.376724 146.788910,144.050095 147.112930,141.882126 
	C147.242172,141.017426 149.716888,140.503250 149.915451,140.408173 
	C152.092529,142.667908 153.434097,144.060394 154.894363,145.717682 
z"/>
<path fill="#0E0E0E" opacity="1.000000" stroke="none" 
	d="
M133.013565,150.995468 
	C129.421448,149.318726 129.711533,146.086044 132.811981,143.841537 
	C133.942261,145.764206 135.100983,147.735275 136.518387,150.146362 
	C136.365967,150.188309 134.887482,150.595078 133.013565,150.995468 
z"/>
<path fill="#ABABAB" opacity="1.000000" stroke="none" 
	d="
M141.268890,139.046234 
	C141.118820,140.133713 140.968735,141.221207 140.818665,142.308685 
	C140.438019,142.328476 140.057358,142.348251 139.676712,142.368042 
	C139.471512,140.088806 139.266312,137.809570 139.061127,135.530334 
	C139.379929,135.424377 139.698730,135.318405 140.017517,135.212448 
	C140.367859,135.887787 140.718185,136.563141 141.119644,137.879120 
	C141.203476,138.695236 141.236191,138.870728 141.268890,139.046234 
z"/>
<path fill="#0E0E0E" opacity="1.000000" stroke="none" 
	d="
M141.554626,139.200714 
	C141.236191,138.870728 141.203476,138.695236 141.200470,138.253632 
	C142.302902,138.092514 143.375626,138.197525 144.448349,138.302521 
	C144.485153,138.653412 144.521942,139.004303 144.558731,139.355194 
	C143.652603,139.355194 142.746475,139.355194 141.554626,139.200714 
z"/>
<path fill="#171717" opacity="1.000000" stroke="none" 
	d="
M142.623734,144.508163 
	C143.102966,144.565430 143.394302,144.803696 143.685638,145.041962 
	C143.494431,145.229752 143.303238,145.417542 143.112045,145.605331 
	C142.886642,145.299942 142.661240,144.994553 142.623734,144.508163 
z"/>
<path fill="#0E0E0E" opacity="1.000000" stroke="none" 
	d="
M137.344940,142.013062 
	C137.687088,142.545425 137.828369,143.246490 137.969650,143.947571 
	C137.753220,143.981094 137.536774,144.014618 137.320328,144.048126 
	C137.261581,143.426010 137.202835,142.803894 137.344940,142.013062 
z"/>
<path fill="#0E0E0E" opacity="1.000000" stroke="none" 
	d="
M146.011932,135.239929 
	C146.248856,135.348099 146.497696,135.696182 146.746552,136.044281 
	C146.623016,136.130981 146.499466,136.217697 146.375931,136.304398 
	C146.258575,136.029556 146.141205,135.754700 146.011932,135.239929 
z"/>
<path fill="#0E0E0E" opacity="1.000000" stroke="none" 
	d="
M138.300598,146.654968 
	C138.037079,146.641205 137.892273,146.499786 137.747452,146.358383 
	C137.971405,146.414703 138.195358,146.471008 138.300598,146.654968 
z"/>
<path fill="#171717" opacity="1.000000" stroke="none" 
	d="
M140.999573,149.998962 
	C141.120392,149.539444 141.241226,149.079926 141.362061,148.620407 
	C141.566483,148.842636 141.770920,149.064850 141.743225,149.598511 
	C141.340591,149.939621 141.170090,149.969284 140.999573,149.998962 
z"/>
<path fill="#FCFAF9" opacity="1.000000" stroke="none" 
	d="
M141.011002,150.252716 
	C141.170090,149.969284 141.340591,149.939621 141.763519,149.849335 
	C142.355179,149.922195 142.694412,150.055664 143.206009,150.401596 
	C143.180161,150.782928 142.981918,150.951782 142.450989,151.325470 
	C141.752991,151.189026 141.387711,150.847733 141.011002,150.252716 
z"/>
<path fill="#121212" opacity="1.000000" stroke="none" 
	d="
M150.460876,151.442368 
	C150.520706,151.405334 150.401031,151.479401 150.460876,151.442368 
z"/>
<path fill="#0E0E0E" opacity="1.000000" stroke="none" 
	d="
M135.460327,142.443726 
	C135.521942,142.405670 135.398727,142.481766 135.460327,142.443726 
z"/>
<path fill="#0E0E0E" opacity="1.000000" stroke="none" 
	d="
M145.945709,134.861237 
	C145.877930,134.858124 145.755859,134.716263 145.633789,134.574387 
	C145.719666,134.623749 145.805527,134.673126 145.945709,134.861237 
z"/>
</svg>