<?xml version="1.0" encoding="UTF-8"?>
<svg version="1.1" xmlns="http://www.w3.org/2000/svg" width="898" height="996">
<path d="M0 0 C296.34 0 592.68 0 898 0 C898 328.68 898 657.36 898 996 C601.66 996 305.32 996 0 996 C0 667.32 0 338.64 0 0 Z " fill="#006FB9" transform="translate(0,0)"/>
<path d="M0 0 C0.91250708 -0.00235223 1.82501415 -0.00470446 2.76517296 -0.00712797 C5.83929424 -0.01381338 8.9133732 -0.01335988 11.98750114 -0.01294994 C14.20724485 -0.01624884 16.42698796 -0.01997447 18.6467303 -0.02409142 C24.75964599 -0.03411641 30.87255185 -0.03782901 36.98547459 -0.04048073 C42.89707639 -0.04398179 48.80867069 -0.05212891 54.72026799 -0.06002467 C70.55922198 -0.0808638 86.39817783 -0.09133785 102.23714233 -0.10015428 C109.73031132 -0.10436136 117.2234795 -0.10958325 124.71664781 -0.11483881 C150.36745249 -0.13272813 176.0182574 -0.14772427 201.66906738 -0.155159 C203.27926908 -0.15563375 204.88947077 -0.15610964 206.49967247 -0.15658666 C207.29818483 -0.15682303 208.0966972 -0.15705941 208.91940692 -0.15730295 C212.96504404 -0.15850414 217.01068117 -0.1597196 221.05631828 -0.16094494 C221.85918571 -0.16118509 222.66205314 -0.16142524 223.48924989 -0.16167267 C249.52144417 -0.16956599 275.55359289 -0.19299895 301.58576728 -0.22550088 C329.10962647 -0.25980248 356.63345901 -0.27951041 384.15733993 -0.28280324 C387.17911523 -0.28322078 390.20089051 -0.28370034 393.22266579 -0.28422642 C394.33873172 -0.28441121 394.33873172 -0.28441121 395.47734444 -0.28459973 C407.44838237 -0.28693127 419.41936737 -0.30258856 431.39038644 -0.32306826 C443.42437179 -0.343329 455.45829359 -0.34880238 467.49229284 -0.33929763 C474.01105071 -0.33454238 480.52967076 -0.33668997 487.04840851 -0.35605907 C493.01711359 -0.37364085 498.98552084 -0.37273326 504.95422886 -0.35716178 C507.11240711 -0.35477817 509.27060572 -0.35914813 511.42875279 -0.37099043 C537.13258744 -0.5032869 537.13258744 -0.5032869 547.21256828 9.14203358 C554.41059812 17.17484587 557.30788463 24.5503285 557.25220013 35.24672031 C557.25700984 36.61512853 557.25700984 36.61512853 557.26191673 38.01118135 C557.27024061 41.07852363 557.26428402 44.14567187 557.25842094 47.21301746 C557.26144054 49.43021278 557.26532906 51.64740705 557.27001351 53.86459947 C557.2803271 59.9658018 557.27810313 66.0669456 557.27383292 72.16815281 C557.27162443 78.0697946 557.27877069 83.97142022 557.28559317 89.87305739 C557.3008419 103.43678124 557.3025373 117.00048644 557.30007014 130.56421706 C557.29823802 141.03882 557.2999954 151.51341682 557.30429459 161.98801899 C557.30489699 163.49250806 557.30549818 164.99699713 557.30609819 166.5014862 C557.30700544 168.76858044 557.3079141 171.03567468 557.30883054 173.30276892 C557.31726161 194.38463158 557.32159476 215.46649194 557.31742382 236.54835606 C557.31726744 237.3432866 557.31711107 238.13821713 557.31694995 238.95723648 C557.31614416 242.98631541 557.31529839 247.01539434 557.31443665 251.04447326 C557.31426556 251.84466879 557.31409448 252.64486432 557.3139182 253.46930819 C557.31357155 255.087499 557.31322302 256.70568981 557.31287262 258.32388062 C557.30751612 283.49960692 557.31544318 308.67529819 557.33390617 333.85101795 C557.35462304 362.13322595 557.3653494 390.41541225 557.36133069 418.69762826 C557.36093534 421.7134722 557.36057379 424.72931615 557.36023331 427.7451601 C557.36014258 428.48774183 557.36005184 429.23032356 557.35995836 429.99540776 C557.35879241 441.2052495 557.36544061 452.41506932 557.37604523 463.62490559 C557.38809476 476.37516429 557.38965912 489.12537474 557.37725506 501.87563416 C557.37135564 508.38210436 557.37029635 514.88848021 557.38225746 521.39494419 C557.39307987 527.35118319 557.39005621 533.30724863 557.37599578 539.26347938 C557.37333879 541.41824153 557.37574668 543.57301713 557.38373164 545.72776613 C557.3938372 548.6581723 557.38541583 551.58797514 557.37245464 554.51835728 C557.37976399 555.3535099 557.38707334 556.18866253 557.39460418 557.04912281 C557.30462085 566.87457234 554.39071505 575.61813763 547.99772453 583.13422108 C540.65370523 589.97072685 533.53410755 592.59154897 523.6584425 592.52012444 C522.73379709 592.52538355 521.80915168 592.53064266 520.85648671 592.53606114 C517.7529846 592.5500354 514.64990451 592.54264651 511.54638481 592.53535938 C509.30087604 592.54096363 507.05537019 592.5478657 504.80986899 592.55595535 C498.63496057 592.57432995 492.46017388 592.57390617 486.28524435 592.57037222 C480.31092367 592.56982351 474.33663876 592.58329074 468.36233566 592.59621089 C454.63252721 592.62522365 440.90275236 592.63366334 427.17291687 592.63538206 C416.56915621 592.63676078 405.96540874 592.64293626 395.36165237 592.65248394 C392.30916444 592.65517659 389.25667649 592.65784603 386.20418853 592.66050857 C385.06589143 592.66150329 385.06589143 592.66150329 383.90459842 592.6625181 C362.55874104 592.68098097 341.21288823 592.69281978 319.86702251 592.69148827 C319.06222841 592.69144153 318.2574343 592.69139479 317.42825249 592.69134664 C313.34924447 592.69109732 309.27023645 592.6908002 305.19122843 592.69049252 C304.38112706 592.69043268 303.57102568 592.69037285 302.73637579 592.6903112 C301.09815289 592.69018989 299.45992999 592.69006449 297.82170709 592.68993502 C272.33695257 592.688097 246.85231783 592.71061194 221.36759758 592.75165272 C192.73340353 592.79774646 164.09928818 592.82355068 135.46505469 592.82076305 C132.41099497 592.82053916 129.35693525 592.82039304 126.30287552 592.8203001 C125.17490187 592.82024766 125.17490187 592.82024766 124.02414087 592.82019415 C111.92879165 592.82010188 99.83354649 592.83925015 87.73822819 592.8650969 C75.57897623 592.89054259 63.41987633 592.89348374 51.26061247 592.87376893 C44.67482592 592.86366622 38.0893404 592.86383411 31.503582 592.88982868 C25.47247417 592.91338913 19.44204244 592.90916613 13.41095134 592.88297629 C11.23128151 592.87836354 9.05156152 592.8838493 6.87195084 592.90055651 C-5.77508402 592.99106422 -16.28607221 593.06032219 -26.20652837 584.15567309 C-33.94233462 576.25528588 -36.15515395 566.95873299 -36.13649654 556.25220013 C-36.13884877 555.3405473 -36.141201 554.42889447 -36.14362451 553.4896158 C-36.15032028 550.41238865 -36.14985612 547.33520368 -36.14944649 544.25796986 C-36.15274475 542.03837651 -36.15647023 539.81878376 -36.16058797 537.59919178 C-36.17062031 531.48208614 -36.17432674 525.36499031 -36.17697728 519.2478776 C-36.1804765 513.33368123 -36.18862342 507.41949237 -36.19652121 501.50530051 C-36.21736807 485.65742163 -36.22783574 469.80954088 -36.23665082 453.96165148 C-36.24085693 446.46506209 -36.24607897 438.96847349 -36.25133535 431.47188477 C-36.26922563 405.81232418 -36.2842219 380.15276335 -36.29165554 354.49319744 C-36.2921303 352.88220112 -36.29260619 351.27120479 -36.2930832 349.66020847 C-36.29331958 348.86129637 -36.29355595 348.06238426 -36.29379949 347.2392627 C-36.2950007 343.19155351 -36.29621614 339.14384432 -36.29744148 335.09613514 C-36.29768163 334.29285406 -36.29792178 333.48957299 -36.29816921 332.66195006 C-36.30606261 306.61608296 -36.32949524 280.5702614 -36.36199743 254.52441419 C-36.39629447 226.99000366 -36.41600655 199.45561977 -36.41929978 171.92118752 C-36.41971732 168.89857204 -36.42019689 165.87595657 -36.42072296 162.8533411 C-36.42084615 162.10908323 -36.42096934 161.36482535 -36.42109627 160.5980142 C-36.42342843 148.62021501 -36.43908924 136.64246869 -36.45956481 124.66468834 C-36.47981968 112.62499721 -36.48530171 100.58536961 -36.47579417 88.54566459 C-36.471037 82.02298708 -36.47319685 75.50044731 -36.49255562 68.97778988 C-36.51012475 63.00662999 -36.50924018 57.03576791 -36.49365833 51.06460513 C-36.49127277 48.90439596 -36.49565465 46.7441665 -36.50748698 44.58398841 C-36.52258267 41.64606049 -36.51294906 38.70919093 -36.49726009 35.77128887 C-36.5074823 34.93396021 -36.51770451 34.09663154 -36.52823648 33.23392928 C-36.41042942 23.11582982 -32.32777213 15.55033043 -25.44368172 8.33734608 C-17.61831024 1.27573086 -10.18492501 -0.01780938 0 0 Z " fill="#FEFEFE" transform="translate(189.00227546691895,166.86577892303467)"/>
<path d="M0 0 C296.34 0 592.68 0 898 0 C898 328.68 898 657.36 898 996 C601.66 996 305.32 996 0 996 C0 667.32 0 338.64 0 0 Z M40.91685703 42.00521496 C38.53792514 47.18100312 39.18872704 53.21810101 39.24495316 58.79746246 C39.23869564 60.35202323 39.2298091 61.90657525 39.21852696 63.46110767 C39.19506544 67.7543653 39.20919143 72.04681827 39.22919467 76.34006345 C39.24436331 81.00254666 39.22487606 85.66490285 39.20973468 90.32736826 C39.18801859 98.50598282 39.18874985 106.68435996 39.20401764 114.86298561 C39.22665941 127.02458678 39.21513795 139.18598668 39.1967678 151.34758638 C39.16512655 173.06477149 39.16793025 194.78185089 39.18524127 216.49904613 C39.20031633 235.50375472 39.20428337 254.50842449 39.19710541 273.51313782 C39.1966471 274.77225772 39.19618879 276.03137762 39.19571659 277.32865267 C39.19384865 282.43943502 39.19193826 287.55021734 39.18995801 292.66099965 C39.17629686 328.34342044 39.1739068 364.02582815 39.19633865 399.70824432 C39.19676015 400.38101564 39.19718164 401.05378695 39.19761591 401.74694527 C39.20448588 412.67283533 39.21180253 423.59872509 39.21915695 434.52461482 C39.24829577 477.86003435 39.24694333 521.19534267 39.21777344 564.53076172 C39.2104465 575.45109292 39.20318029 586.37142415 39.19633865 597.29175568 C39.19591596 597.96412834 39.19549328 598.636501 39.19505778 599.32924859 C39.1724037 635.61348412 39.1773881 671.89771375 39.19144702 708.18195295 C39.19337141 713.28358935 39.19524845 718.38522576 39.19710541 723.48686218 C39.19757987 724.74307635 39.19805434 725.99929052 39.19854318 727.29357179 C39.20537688 746.2894249 39.19736989 765.285235 39.18222809 784.28108215 C39.16510262 805.87356717 39.16929703 827.46592964 39.20191255 849.05839932 C39.21957711 861.15286155 39.22061333 873.24705864 39.19803551 885.34151419 C39.18463124 893.40956894 39.19286316 901.47741011 39.21906412 909.54543309 C39.23340426 914.14948423 39.23807951 918.75300674 39.21662822 923.35704213 C39.19733359 927.54065036 39.20534985 931.72325812 39.23571219 935.90679253 C39.24178509 937.41549197 39.23767985 938.92427311 39.22247656 940.43290817 C38.84166762 948.04805047 38.84166762 948.04805047 41.31573805 954.9815529 C45.21438749 958.33254569 48.43480681 959.12514029 53.39676452 959.12880117 C55.12990151 959.13370946 55.12990151 959.13370946 56.89805138 959.13871691 C58.180976 959.13723328 59.46390063 959.13574966 60.78570175 959.13422108 C62.15738177 959.13617263 63.52906122 959.13856095 64.90073979 959.14134905 C68.699981 959.14777677 72.49920114 959.14790847 76.29844676 959.14707164 C80.42045227 959.14724059 84.54245011 959.15314058 88.66445184 959.1583125 C96.85337578 959.16765853 105.04229432 959.17156391 113.23122293 959.17383147 C123.03428756 959.17678832 132.83734497 959.18548262 142.64040583 959.19424575 C166.33739641 959.21511169 190.03438824 959.22556304 213.73138587 959.23437535 C224.93548144 959.23857851 236.13957647 959.24380092 247.34367158 959.24905988 C285.6754925 959.26695129 324.00731356 959.28194887 362.33913803 959.28938007 C364.74659241 959.28985484 367.15404678 959.29033072 369.56150116 959.29080774 C370.7554147 959.29104411 371.94932823 959.29128049 373.17942097 959.29152403 C379.22866346 959.29272526 385.27790595 959.2939407 391.32714844 959.29516602 C392.52765164 959.29540617 393.72815483 959.29564632 394.96503692 959.29589374 C433.9052015 959.30379008 472.84533566 959.32722819 511.78548695 959.35972196 C552.92843031 959.39399137 594.07135587 959.4137285 635.21431375 959.41702431 C639.72763587 959.41744187 644.24095798 959.41792144 648.75428009 959.41844749 C650.42131326 959.41863228 650.42131326 959.41863228 652.12202387 959.4188208 C670.03491003 959.42115637 687.94776095 959.43683614 705.86063454 959.45728934 C723.85327753 959.47750828 741.84587803 959.48304331 759.83853027 959.47351871 C770.53744906 959.46828848 781.23622677 959.47425274 791.93512536 959.49605338 C799.07430785 959.50950537 806.21339264 959.50853435 813.35257598 959.49565142 C817.42527518 959.48871727 821.4977036 959.48821216 825.57037923 959.50521151 C829.27294305 959.52054072 832.97501676 959.51757466 836.67756553 959.49980123 C838.64179296 959.49514841 840.60603661 959.51019564 842.57020628 959.52596101 C843.73564502 959.51671561 844.90108376 959.50747021 846.10183883 959.49794465 C847.60466485 959.49854493 847.60466485 959.49854493 849.13785098 959.49915733 C852.97468209 958.83001594 855.08595987 957.57388549 858 955 C858.89386898 952.04357859 858.89386898 952.04357859 858.74979365 948.6524753 C858.77155664 946.67707969 858.77155664 946.67707969 858.79375929 944.66177711 C858.77951979 943.19368929 858.76473314 941.72560669 858.74946022 940.25752926 C858.7551094 938.69670806 858.76338942 937.13589455 858.77407068 935.57509968 C858.79588923 931.25979992 858.78005545 926.94531397 858.7584026 922.6300432 C858.74144919 917.9454513 858.75914791 913.26097356 858.77253091 908.57638794 C858.79116913 900.35744356 858.78736459 892.13874338 858.76906586 883.91980171 C858.74193024 871.6983412 858.74897566 859.47706923 858.76298306 847.25559524 C858.78687426 825.43228737 858.77663813 803.60909479 858.75242651 781.78579326 C858.73138301 762.68889768 858.72227183 743.59204144 858.72501755 724.49513435 C858.72518561 723.23011008 858.72535367 721.9650858 858.72552682 720.66172745 C858.72623128 715.52704353 858.72699929 710.39235962 858.72785798 705.25767572 C858.73376077 669.40699354 858.72904499 633.55632756 858.700037 597.70565701 C858.69949063 597.02966334 858.69894425 596.35366967 858.69838132 595.65719134 C858.68947349 584.67882516 858.68004417 573.70045941 858.67058354 562.72209369 C858.63309019 519.17546934 858.62025567 475.6289144 858.63134766 432.08227539 C858.63204163 429.33037654 858.63273285 426.5784777 858.63342424 423.82657885 C858.63359544 423.14618603 858.63376665 422.46579322 858.63394305 421.76478244 C858.63583523 414.22998812 858.63765867 406.69519379 858.63939857 399.16039944 C858.63955641 398.48473693 858.63971425 397.80907443 858.63987687 397.11293731 C858.64831703 360.6575118 858.63771325 324.20209449 858.62037599 287.74667221 C858.61856185 283.89918991 858.61675054 280.05170761 858.61494553 276.20422531 C858.6137433 273.65172428 858.61252607 271.09922326 858.61129371 268.54672225 C858.60283828 250.72394895 858.60169973 232.90118828 858.6055047 215.07841362 C858.61038241 192.11539098 858.60231362 169.15243603 858.57108469 146.18943196 C858.55493729 134.0346214 858.54981552 121.87992362 858.56036941 109.72510625 C858.56629672 101.61934585 858.55780592 93.51368566 858.53727225 85.40794925 C858.52595382 80.78078644 858.52110778 76.15385461 858.53360541 71.52668958 C858.54481904 67.32453645 858.53791564 63.12283386 858.51600786 58.92072644 C858.51135957 57.40299839 858.51353702 55.88523171 858.52305295 54.36752636 C858.5349363 52.3191004 858.52010246 50.27057029 858.50369799 48.22217554 C858.50297948 47.08425596 858.50226096 45.94633638 858.50152067 44.77393439 C858.23974275 41.93798476 858.23974275 41.93798476 856.32294448 40.13476083 C853.47332362 38.74271803 851.50022864 38.62370184 848.32919037 38.62165117 C847.16353745 38.61362817 845.99788453 38.60560516 844.7969088 38.59733903 C843.51282082 38.60379084 842.22873284 38.61024264 840.90573311 38.61688995 C839.52489702 38.61315498 838.14406396 38.60810685 836.76323694 38.60186112 C832.94784198 38.58845766 829.132665 38.59385968 825.31726403 38.60219461 C821.17432707 38.60797839 817.03143319 38.59646767 812.88850772 38.58713293 C805.62051962 38.57318669 798.35259377 38.57049665 791.08459473 38.57509232 C780.27696663 38.58190849 769.46940184 38.57168721 758.66178253 38.55813476 C738.23893667 38.53318477 717.81611688 38.52870766 697.39325823 38.53060073 C681.62585541 38.53197217 665.85846168 38.52816412 650.09106064 38.52067566 C647.82821459 38.51962534 645.56536855 38.51857772 643.3025225 38.5175328 C641.61770115 38.51675378 641.61770115 38.51675378 639.89884301 38.51595903 C638.7736081 38.51543888 637.64837319 38.51491874 636.48904026 38.51438284 C634.79842763 38.51359685 634.79842763 38.51359685 633.07366121 38.51279498 C601.35977195 38.49820508 569.64588603 38.48993212 537.93199348 38.49454498 C536.73565777 38.49471694 535.53932205 38.49488889 534.30673374 38.49506606 C528.242813 38.49595499 522.17889226 38.4968998 516.11497153 38.49786407 C514.91059283 38.4980551 513.70621412 38.49824613 512.46533909 38.49844296 C510.02979104 38.49883005 507.594243 38.49922037 505.15869496 38.49961393 C467.25502301 38.50558499 429.35141209 38.49014367 391.44775391 38.45800781 C348.89198758 38.42195862 306.33625997 38.4025944 263.7804774 38.40754652 C259.2458419 38.40801652 254.7112064 38.40842677 250.17657089 38.40879822 C249.05997584 38.4089006 247.94338079 38.40900299 246.79294953 38.40910848 C229.91209035 38.410305 213.03127289 38.39831406 196.15042496 38.37965393 C176.95951008 38.3584509 157.76868291 38.35453222 138.57776417 38.37395352 C127.82993201 38.38430674 117.08231354 38.38074119 106.33450055 38.35742267 C99.16277629 38.3432382 91.9912109 38.34709744 84.81949748 38.36586843 C80.72821163 38.37606266 76.63734303 38.37823362 72.54608251 38.35854775 C68.8266215 38.34081152 65.1079312 38.34593879 61.38850942 38.36957614 C59.415312 38.37614984 57.44207989 38.35811087 55.46896237 38.3391763 C47.4983415 38.18385628 47.4983415 38.18385628 40.91685703 42.00521496 Z " fill="#006FB9" transform="translate(0,0)"/>
<path d="M0 0 C1.16830873 -0.00526326 2.33661746 -0.01052652 3.54032949 -0.01594928 C5.46321236 -0.00935455 5.46321236 -0.00935455 7.42494136 -0.0026266 C8.80743558 -0.0050162 10.18992852 -0.00828123 11.57241884 -0.0123432 C15.38775083 -0.02099075 19.20298486 -0.01712537 23.01831844 -0.01128747 C27.16301582 -0.00712838 31.30769494 -0.01451275 35.45238793 -0.02043998 C42.72204524 -0.02921923 49.99167438 -0.03050798 57.26133567 -0.02693671 C68.07164334 -0.02164003 78.88192365 -0.0277146 89.69222834 -0.03601964 C110.12147192 -0.05128221 130.55070314 -0.05296235 150.97995123 -0.05049662 C166.75444469 -0.04866571 182.52893409 -0.0504193 198.30342704 -0.05472106 C200.56777306 -0.05532345 202.83211909 -0.05592465 205.09646511 -0.05652466 C208.5084208 -0.05743189 211.92037648 -0.05834056 215.33233216 -0.05925701 C247.06729602 -0.06769016 278.80225834 -0.07201979 310.53722316 -0.06785029 C312.33280069 -0.06761573 312.33280069 -0.06761573 314.16465251 -0.06737643 C320.23210712 -0.06657061 326.29956173 -0.06572484 332.36701634 -0.06486312 C333.57208086 -0.06469204 334.77714537 -0.06452095 336.018727 -0.06434468 C338.45566272 -0.06399802 340.89259845 -0.06364949 343.32953418 -0.06329909 C381.24681743 -0.05794208 419.16407743 -0.06587026 457.08135635 -0.08433264 C499.66023677 -0.10504043 542.23910278 -0.11577761 584.81798851 -0.11175716 C589.35661206 -0.1113618 593.89523562 -0.11100026 598.43385917 -0.11065978 C600.11020218 -0.11052368 600.11020218 -0.11052368 601.82041071 -0.11038483 C618.70534875 -0.10921792 635.59027226 -0.11587437 652.47520667 -0.1264717 C671.67584692 -0.13850996 690.87645512 -0.14009861 710.07709583 -0.12768153 C720.82626374 -0.12104149 731.5753551 -0.12271031 742.32451692 -0.13627005 C749.50219919 -0.1444956 756.67982393 -0.14184169 763.8575015 -0.13029478 C767.94881747 -0.12401948 772.03998373 -0.12248606 776.13129123 -0.13415811 C779.85536307 -0.14468483 783.57915816 -0.14133649 787.30321513 -0.12705358 C789.26926769 -0.12305003 791.23533355 -0.13371734 793.20135763 -0.14503065 C803.92061028 -0.07917761 813.34892735 1.43250163 821.20318252 9.251849 C825.47712156 14.86538087 827.32714823 19.39321838 827.33313435 26.49918067 C827.33503359 27.13925691 827.33693283 27.77933314 827.33888963 28.43880562 C827.34407365 30.60249226 827.34209429 32.76611437 827.34019691 34.92980558 C827.34245205 36.49585939 827.34514312 38.06191262 827.34823275 39.627965 C827.35549055 43.96225605 827.35646201 48.29652981 827.35645552 52.63082611 C827.35752229 57.33463418 827.36430959 62.03843447 827.37036222 66.74223828 C827.38145303 76.08557785 827.38709023 85.42891366 827.3910711 94.77225866 C827.39607421 105.95801971 827.40680076 117.14377345 827.41755283 128.32953019 C827.44320119 155.36929604 827.45822161 182.40906473 827.4710633 209.44883926 C827.47531626 218.40263818 827.47988194 227.3564369 827.48464662 236.31023556 C827.50954044 283.20667976 827.53161867 330.10312445 827.543837 376.99957375 C827.54473437 380.43304905 827.54564908 383.86652435 827.54656474 387.29999965 C827.54674635 387.9810973 827.54692796 388.66219494 827.54711508 389.36393191 C827.54895777 396.26449366 827.55082362 403.16505541 827.55271317 410.06561715 C827.55309122 411.44920799 827.55346751 412.83279883 827.55384205 414.21638967 C827.56587209 458.65223721 827.59556012 503.08804559 827.63725716 547.52387467 C827.68073922 593.87582397 827.70853329 640.22774242 827.71384948 686.57971528 C827.71458996 693.0254135 827.71550065 699.47111168 827.71650726 705.91680986 C827.71669787 707.18542827 827.71688849 708.45404668 827.71708488 709.76110807 C827.72060211 730.19951253 827.74091685 750.63786751 827.76730389 771.07625379 C827.79341558 791.61059794 827.8011899 812.14488477 827.7902026 832.67924315 C827.78421482 844.88593867 827.79219511 857.09244011 827.82003344 869.29910634 C827.83724676 877.44839779 827.83636913 885.59755645 827.82066575 893.74685064 C827.81223055 898.3932102 827.81175418 903.03919862 827.83327721 907.68552423 C827.85270449 911.91331306 827.84907264 916.14043364 827.82712372 920.3682044 C827.82326264 921.88735002 827.82776536 923.40654612 827.84171074 924.92563264 C827.92911045 935.10654409 826.72358769 942.89285276 819.99224502 950.87294275 C819.27810439 951.47235681 818.56396377 952.07177087 817.82818252 952.689349 C817.11919814 953.30680993 816.41021377 953.92427087 815.67974502 954.56044275 C808.12664185 959.71895012 801.63738599 959.67924383 792.67006522 959.63216573 C791.27811368 959.63560051 789.88616486 959.64034816 788.49422175 959.6462867 C784.66192613 959.65881282 780.82985271 959.652639 776.99755602 959.64345302 C772.83104489 959.6367531 768.66457242 959.64740437 764.49806947 959.65584886 C757.19324673 959.66823555 749.88848821 959.66941958 742.58365852 959.66329843 C731.72115113 959.65422034 720.8587033 959.66222895 709.99620049 959.67358967 C690.59695283 959.69327708 671.19773186 959.69560001 651.79847659 959.69039447 C634.82081974 959.68584086 617.84317347 959.686432 600.86551696 959.69223481 C598.58993943 959.69299167 596.31436191 959.69374765 594.03878438 959.69450276 C590.60987468 959.69564793 587.18096498 959.6967978 583.75205529 959.697962 C551.86418978 959.70867039 519.97632781 959.71338878 488.08846122 959.70549184 C486.88588491 959.70519467 485.68330859 959.70489749 484.44429057 959.70459132 C474.67793864 959.70214227 464.91158674 959.69953074 455.14523485 959.69690718 C417.04636994 959.68680402 378.9475491 959.6951601 340.84869033 959.71840173 C298.06214718 959.74446066 255.27563056 959.75732591 212.48907918 959.75021398 C207.92887933 959.7494979 203.36867947 959.74882351 198.80847961 959.74817353 C197.68561058 959.74800373 196.56274154 959.74783392 195.40584618 959.74765896 C178.43891457 959.74535378 161.47200756 959.7533434 144.50508147 959.76646501 C125.21405541 959.78135722 105.92308708 959.78224499 86.63206227 959.7643941 C75.83155252 959.75481191 65.03117732 959.75630503 54.23067647 959.77362879 C47.02011502 959.78408907 39.80965646 959.78005917 32.59910519 959.76414875 C28.48819505 959.75548605 24.37754928 959.75316735 20.26665236 959.76841807 C16.52595642 959.78216472 12.78575197 959.77746779 9.04508488 959.75813288 C7.06777118 959.75264182 5.09043259 959.76674142 3.11316758 959.78166422 C-7.74250063 959.69218294 -15.75666184 956.59920211 -23.79681748 949.251849 C-28.18502738 943.59336781 -30.04591559 938.9096994 -30.05096781 931.76253235 C-30.0557338 930.79962539 -30.0557338 930.79962539 -30.06059608 929.81726576 C-30.068828 927.65922462 -30.06280113 925.50145948 -30.0568797 923.34341413 C-30.0598756 921.77673356 -30.06374555 920.21005447 -30.06841204 918.64337799 C-30.07873183 914.31665341 -30.07652855 909.99001028 -30.07235667 905.6632787 C-30.06999796 900.96421332 -30.07914974 896.26516833 -30.08684087 891.56611061 C-30.09870794 883.32311952 -30.10305285 875.08015058 -30.10251969 866.83715135 C-30.10172774 854.57950641 -30.11226301 842.32188951 -30.12493526 830.06425205 C-30.14969951 805.62370646 -30.15846062 781.18316763 -30.16347175 756.74261121 C-30.16373292 755.4762712 -30.1639941 754.20993119 -30.16426319 752.90521723 C-30.16452346 751.63638974 -30.16478374 750.36756225 -30.1650519 749.06028544 C-30.16813172 735.01217181 -30.17463558 720.96406006 -30.18126458 706.91594774 C-30.20091479 664.50178388 -30.21732367 622.08762249 -30.22014111 579.67345411 C-30.22023574 578.30254442 -30.22033075 576.93163473 -30.22042615 575.56072503 C-30.22085389 569.37108288 -30.22125927 563.18144071 -30.22166451 556.99179855 C-30.2218461 554.23164103 -30.222031 551.4714835 -30.22221657 548.71132598 C-30.22230859 547.32981648 -30.22239899 545.94830699 -30.22248777 544.5667975 C-30.22530212 500.8832621 -30.24702911 457.19977283 -30.28387803 413.51625329 C-30.32459188 365.24169666 -30.34829952 316.96717993 -30.34860063 268.69260216 C-30.34869745 263.54734446 -30.34886418 258.40208677 -30.34908074 253.25682908 C-30.34912486 251.98988682 -30.34916897 250.72294457 -30.34921442 249.41761012 C-30.35033544 229.00721332 -30.36776112 208.59686146 -30.39090006 188.18647914 C-30.41371538 167.68150122 -30.41798542 147.17658417 -30.40335076 126.67159823 C-30.39518463 114.4826697 -30.40094213 102.29393257 -30.42653161 90.10502716 C-30.44223996 81.96764436 -30.43985034 73.83039799 -30.42262488 65.69301857 C-30.41331912 61.0535002 -30.41196296 56.41435146 -30.43259095 51.77486137 C-30.45120149 47.5532983 -30.44675729 43.33240857 -30.42400001 39.11087154 C-30.41984625 37.59398755 -30.42405233 36.07705141 -30.4376977 34.56022311 C-30.51817947 24.97850275 -29.81475041 16.71653337 -23.05461368 9.35453509 C-19.37129848 5.88013279 -15.51023384 3.99755876 -10.79681748 2.251849 C-9.63424246 1.7259687 -9.63424246 1.7259687 -8.44818107 1.18946456 C-5.4649545 0.13449056 -3.15997242 0.00112793 0 0 Z M-9.87996046 23.25706396 C-12.25889234 28.43285211 -11.60809044 34.46995001 -11.55186433 40.04931146 C-11.55812184 41.60387222 -11.56700838 43.15842425 -11.57829052 44.71295667 C-11.60175204 49.00621429 -11.58762605 53.29866727 -11.56762281 57.59191244 C-11.55245418 62.25439565 -11.57194142 66.91675185 -11.5870828 71.57921726 C-11.6087989 79.75783181 -11.60806763 87.93620896 -11.59279984 96.11483461 C-11.57015807 108.27643577 -11.58167954 120.43783567 -11.60004969 132.59943537 C-11.63169093 154.31662049 -11.62888723 176.03369989 -11.61157621 197.75089513 C-11.59650115 216.75560371 -11.59253411 235.76027348 -11.59971207 254.76498681 C-11.60017038 256.02410671 -11.60062869 257.28322661 -11.60110089 258.58050166 C-11.60296883 263.69128401 -11.60487922 268.80206634 -11.60685948 273.91284865 C-11.62052062 309.59526943 -11.62291068 345.27767714 -11.60047883 380.96009332 C-11.60005733 381.63286463 -11.59963584 382.30563595 -11.59920157 382.99879427 C-11.5923316 393.92468432 -11.58501495 404.85057408 -11.57766053 415.77646382 C-11.54852171 459.11188334 -11.54987416 502.44719167 -11.57904404 545.78261071 C-11.58637098 556.70294192 -11.59363719 567.62327315 -11.60047883 578.54360467 C-11.60090152 579.21597733 -11.60132421 579.88834999 -11.6017597 580.58109758 C-11.62441378 616.86533311 -11.61942938 653.14956275 -11.60537046 689.43380195 C-11.60344607 694.53543835 -11.60156903 699.63707476 -11.59971207 704.73871118 C-11.59923761 705.99492535 -11.59876315 707.25113952 -11.5982743 708.54542078 C-11.5914406 727.54127389 -11.59944759 746.53708399 -11.61458939 765.53293115 C-11.63171486 787.12541616 -11.62752045 808.71777864 -11.59490493 830.31024832 C-11.57724037 842.40471054 -11.57620415 854.49890764 -11.59878198 866.59336318 C-11.61218624 874.66141794 -11.60395432 882.72925911 -11.57775336 890.79728208 C-11.56341323 895.40133322 -11.55873797 900.00485573 -11.58018926 904.60889113 C-11.5994839 908.79249936 -11.59146763 912.97510711 -11.5611053 917.15864152 C-11.55503239 918.66734097 -11.55913763 920.1761221 -11.57434092 921.68475717 C-11.95514986 929.29989947 -11.95514986 929.29989947 -9.48107943 936.23340189 C-5.58242999 939.58439469 -2.36201067 940.37698929 2.59994704 940.38065016 C4.33308403 940.38555845 4.33308403 940.38555845 6.1012339 940.3905659 C7.38415852 940.38908228 8.66708314 940.38759865 9.98888427 940.38607007 C11.36056429 940.38802163 12.73224374 940.39040994 14.10392231 940.39319804 C17.90316352 940.39962577 21.70238366 940.39975747 25.50162927 940.39892063 C29.62363479 940.39908959 33.74563263 940.40498957 37.86763436 940.4101615 C46.0565583 940.41950752 54.24547684 940.4234129 62.43440545 940.42568046 C72.23747008 940.42863731 82.04052749 940.43733162 91.84358835 940.44609474 C115.54057892 940.46696068 139.23757076 940.47741204 162.93456838 940.48622435 C174.13866395 940.49042751 185.34275898 940.49564992 196.5468541 940.50090888 C234.87867502 940.51880029 273.21049608 940.53379787 311.54232055 940.54122907 C313.94977493 940.54170383 316.3572293 940.54217972 318.76468368 940.54265673 C319.95859721 940.54289311 321.15251075 940.54312948 322.38260348 940.54337302 C328.43184598 940.54457426 334.48108847 940.54578969 340.53033096 940.54701501 C341.73083415 940.54725516 342.93133735 940.54749531 344.16821944 940.54774274 C383.10838402 940.55563908 422.04851817 940.57907718 460.98866947 940.61157096 C502.13161283 940.64584036 543.27453839 940.6655775 584.41749626 940.66887331 C588.93081839 940.66929087 593.4441405 940.66977044 597.95746261 940.67029649 C599.62449578 940.67048128 599.62449578 940.67048128 601.32520639 940.6706698 C619.23809255 940.67300537 637.15094347 940.68868514 655.06381706 940.70913834 C673.05646005 940.72935728 691.04906055 940.73489231 709.04171279 940.7253677 C719.74063158 940.72013748 730.43940929 940.72610173 741.13830788 940.74790237 C748.27749037 940.76135436 755.41657515 940.76038335 762.5557585 940.74750042 C766.6284577 940.74056627 770.70088611 940.74006115 774.77356175 940.75706051 C778.47612557 940.77238972 782.17819928 940.76942365 785.88074805 940.75165023 C787.84497548 940.7469974 789.80921913 940.76204463 791.7733888 940.77781001 C792.93882754 940.76856461 794.10426628 940.75931921 795.30502135 940.74979365 C796.80784736 940.75039392 796.80784736 940.75039392 798.3410335 940.75100632 C802.17786461 940.08186494 804.28914239 938.82573449 807.20318252 936.251849 C808.0970515 933.29542759 808.0970515 933.29542759 807.95297617 929.90432429 C807.97473916 927.92892869 807.97473916 927.92892869 807.9969418 925.9136261 C807.98270231 924.44553828 807.96791566 922.97745569 807.95264274 921.50937825 C807.95829192 919.94855706 807.96657194 918.38774354 807.9772532 916.82694867 C807.99907175 912.51164892 807.98323797 908.19716296 807.96158512 903.88189219 C807.9446317 899.1973003 807.96233043 894.51282256 807.97571343 889.82823694 C807.99435165 881.60929256 807.99054711 873.39059237 807.97224838 865.17165071 C807.94511276 852.9501902 807.95215818 840.72891823 807.96616558 828.50744423 C807.99005678 806.68413637 807.97982065 784.86094379 807.95560903 763.03764225 C807.93456553 743.94074668 807.92545435 724.84389043 807.92820007 705.74698335 C807.92836813 704.48195907 807.92853619 703.21693479 807.92870934 701.91357645 C807.9294138 696.77889253 807.93018181 691.64420862 807.9310405 686.50952472 C807.93694329 650.65884254 807.93222751 614.80817656 807.90321952 578.957506 C807.90267314 578.28151233 807.90212677 577.60551866 807.90156384 576.90904034 C807.89265601 565.93067415 807.88322669 554.95230841 807.87376606 543.97394269 C807.83627271 500.42731834 807.82343818 456.88076339 807.83453017 413.33412439 C807.83522415 410.58222554 807.83591537 407.83032669 807.83660676 405.07842784 C807.83677796 404.39803503 807.83694917 403.71764221 807.83712556 403.01663144 C807.83901775 395.48183712 807.84084119 387.94704279 807.84258109 380.41224843 C807.84273893 379.73658593 807.84289677 379.06092343 807.84305939 378.3647863 C807.85149955 341.90936079 807.84089577 305.45394349 807.82355851 268.99852121 C807.82174437 265.15103891 807.81993306 261.30355661 807.81812805 257.45607431 C807.81692582 254.90357328 807.81570858 252.35107226 807.81447623 249.79857125 C807.80602079 231.97579795 807.80488225 214.15303727 807.80868722 196.33026262 C807.81356493 173.36723997 807.80549614 150.40428503 807.77426721 127.44128095 C807.75811981 115.2864704 807.75299804 103.13177262 807.76355193 90.97695525 C807.76947923 82.87119485 807.76098844 74.76553465 807.74045477 66.65979825 C807.72913634 62.03263544 807.7242903 57.4057036 807.73678793 52.77853858 C807.74800156 48.57638545 807.74109816 44.37468286 807.71919038 40.17257544 C807.71454209 38.65484738 807.71671953 37.1370807 807.72623547 35.61937536 C807.73811881 33.57094939 807.72328498 31.52241928 807.70688051 29.47402453 C807.70616199 28.33610496 807.70544348 27.19818538 807.70470319 26.02578339 C807.44292527 23.18983376 807.44292527 23.18983376 805.526127 21.38660983 C802.67650614 19.99456703 800.70341116 19.87555084 797.53237289 19.87350017 C796.36671997 19.86547716 795.20106705 19.85745416 794.00009131 19.84918803 C792.71600334 19.85563983 791.43191536 19.86209164 790.10891563 19.86873895 C788.72807953 19.86500398 787.34724648 19.85995584 785.96641946 19.85371011 C782.1510245 19.84030665 778.33584752 19.84570868 774.52044655 19.85404361 C770.37750959 19.85982739 766.23461571 19.84831667 762.09169024 19.83898193 C754.82370214 19.82503568 747.55577629 19.82234565 740.28777725 19.82694131 C729.48014915 19.83375749 718.67258436 19.82353621 707.86496505 19.80998375 C687.44211919 19.78503377 667.0192994 19.78055666 646.59644075 19.78244972 C630.82903793 19.78382117 615.0616442 19.78001312 599.29424316 19.77252465 C597.03139711 19.77147433 594.76855107 19.77042672 592.50570502 19.76938179 C590.82088367 19.76860278 590.82088367 19.76860278 589.10202553 19.76780802 C587.97679062 19.76728788 586.85155571 19.76676774 585.69222277 19.76623183 C584.00161015 19.76544585 584.00161015 19.76544585 582.27684373 19.76464398 C550.56295447 19.75005407 518.84906855 19.74178112 487.135176 19.74639398 C485.93884029 19.74656593 484.74250457 19.74673789 483.50991626 19.74691505 C477.44599552 19.74780398 471.38207478 19.7487488 465.31815405 19.74971306 C464.11377535 19.7499041 462.90939664 19.75009513 461.66852161 19.75029195 C459.23297356 19.75067904 456.79742552 19.75106937 454.36187748 19.75146293 C416.45820552 19.75743399 378.55459461 19.74199266 340.65093642 19.70985681 C298.0951701 19.67380762 255.53944248 19.65444339 212.98365992 19.65939552 C208.44902442 19.65986552 203.91438892 19.66027576 199.37975341 19.66064721 C198.26315836 19.6607496 197.14656331 19.66085199 195.99613205 19.66095747 C179.11527287 19.662154 162.23445541 19.65016306 145.35360748 19.63150293 C126.1626926 19.61029989 106.97186543 19.60638121 87.78094669 19.62580252 C77.03311453 19.63615573 66.28549606 19.63259019 55.53768307 19.60927166 C48.36595881 19.59508719 41.19439341 19.59894643 34.02268 19.61771743 C29.93139415 19.62791165 25.84052555 19.63008262 21.74926503 19.61039674 C18.02980402 19.59266052 14.31111372 19.59778778 10.59169193 19.62142514 C8.61849452 19.62799883 6.64526241 19.60995987 4.67214489 19.59102529 C-3.29847598 19.43570527 -3.29847598 19.43570527 -9.87996046 23.25706396 Z " fill="#FAFCFD" transform="translate(50.79681748151779,18.748151004314423)"/>
<path d="M0 0 C16.5 0 33 0 50 0 C50 52.47 50 104.94 50 159 C190.91 159 331.82 159 477 159 C477 116.43 477 73.86 477 30 C493.5 30 510 30 527 30 C527 110.19 527 190.38 527 273 C510.5 273 494 273 477 273 C477 251.22 477 229.44 477 207 C336.09 207 195.18 207 50 207 C50 228.78 50 250.56 50 273 C33.5 273 17 273 0 273 C0 182.91 0 92.82 0 0 Z " fill="#020202" transform="translate(186,439)"/>
<path d="M0 0 C20.79 0 41.58 0 63 0 C63 21.12 63 42.24 63 64 C83.79 64 104.58 64 126 64 C126 84.79 126 105.58 126 127 C105.21 127 84.42 127 63 127 C63 147.79 63 168.58 63 190 C42.21 190 21.42 190 0 190 C0 169.21 0 148.42 0 127 C-20.79 127 -41.58 127 -63 127 C-63 106.21 -63 85.42 -63 64 C-42.21 64 -21.42 64 0 64 C0 42.88 0 21.76 0 0 Z " fill="#FE0101" transform="translate(418,184)"/>
<path d="M0 0 C2.52303815 2.22528831 4.96364341 4.5143159 7.390625 6.84375 C8.21304688 7.60300781 9.03546875 8.36226562 9.8828125 9.14453125 C14.75246869 13.77904827 18.95957262 18.6591847 22.890625 24.09375 C23.31214844 24.67213623 23.73367188 25.25052246 24.16796875 25.84643555 C26.78081654 29.57563326 27.89819739 32.36646716 29.390625 36.84375 C-16.809375 36.84375 -63.009375 36.84375 -110.609375 36.84375 C-114.5155097 25.12534589 -111.33634181 10.35797548 -106.296875 -0.46875 C-100.69052739 -10.83551703 -92.74506632 -16.44798026 -81.7890625 -20.61328125 C-53.68602724 -27.61385813 -21.90821337 -18.10379308 0 0 Z " fill="#010101" transform="translate(357.609375,550.15625)"/>
</svg>
