<?xml version="1.0" encoding="UTF-8"?>
<svg version="1.1" xmlns="http://www.w3.org/2000/svg" width="512" height="512">
<path d="M0 0 C4.33751396 1.44583799 5.29362672 4.71842799 7.3125 8.5625 C8.20844659 10.2213998 9.10702299 11.87888118 10.0078125 13.53515625 C10.49024414 14.42348145 10.97267578 15.31180664 11.46972656 16.22705078 C14.12291075 21.03478307 16.90757042 25.76478848 19.6875 30.5 C24.63252789 38.94218725 29.55228965 47.39804181 34.4375 55.875 C35.05971436 56.95458984 35.68192871 58.03417969 36.32299805 59.14648438 C37.58511517 61.3368252 38.84707785 63.52725502 40.10888672 65.71777344 C43.23680148 71.14659942 46.36858448 76.57319281 49.5 82 C50.75001879 84.16665583 52.00001878 86.3333225 53.25 88.5 C53.86875 89.5725 54.4875 90.645 55.125 91.75 C165.75 283.5 165.75 283.5 167.62524414 286.75048828 C168.87435518 288.91557071 170.12354129 291.08060982 171.37280273 293.24560547 C174.51202309 298.68615706 177.64990563 304.12747216 180.78515625 309.5703125 C186.80747329 320.02206199 192.84669337 330.46299548 198.9375 340.875 C204.35586162 350.13926971 209.69650724 359.44624319 215.00915527 368.77133179 C220.41039762 378.25006293 225.8746938 387.69047823 231.39648438 397.09960938 C233.91895117 401.40335865 236.43060725 405.71320336 238.89453125 410.05078125 C239.50518433 411.12259644 239.50518433 411.12259644 240.12817383 412.21606445 C241 414 241 414 241 416 C82.6 416 -75.8 416 -239 416 C-237.53195771 411.59587313 -236.32284118 408.52117022 -234.05078125 404.640625 C-233.45773193 403.62081543 -232.86468262 402.60100586 -232.25366211 401.55029297 C-231.29278687 399.91664795 -231.29278687 399.91664795 -230.3125 398.25 C-229.63817285 397.0942512 -228.96443682 395.93815734 -228.29125977 394.78173828 C-226.89270204 392.38019452 -225.49161706 389.98015196 -224.08886719 387.58105469 C-220.84524109 382.02768166 -217.64478536 376.44940689 -214.4375 370.875 C-209.6733229 362.60876952 -204.87996351 354.36027243 -200.0625 346.125 C-194.98724877 337.44737759 -189.97741233 328.73394432 -185 320 C-179.4599827 310.27884383 -173.86625191 300.59105342 -168.21655273 290.93310547 C-162.06233258 280.40915375 -155.97630004 269.84619863 -149.89111328 259.28222656 C-146.76319852 253.85340058 -143.63141552 248.42680719 -140.5 243 C-139.24998121 240.83334417 -137.99998122 238.6666775 -136.75 236.5 C-104.25 180.16666667 -71.75 123.83333333 -39.25 67.5 C-38.63108887 66.42717773 -38.01217773 65.35435547 -37.37451172 64.24902344 C-36.12628966 62.08552524 -34.87791761 59.92211357 -33.62939453 57.75878906 C-30.47594744 52.29434983 -27.32523904 46.82836355 -24.1796875 41.359375 C-16.21352792 27.5166071 -8.1615945 13.72849859 0 0 Z " fill="#F2F0EC" transform="translate(255,48)"/>
<path d="M0 0 C4.33751396 1.44583799 5.29362672 4.71842799 7.3125 8.5625 C8.20844659 10.2213998 9.10702299 11.87888118 10.0078125 13.53515625 C10.49024414 14.42348145 10.97267578 15.31180664 11.46972656 16.22705078 C14.12291075 21.03478307 16.90757042 25.76478848 19.6875 30.5 C24.63252789 38.94218725 29.55228965 47.39804181 34.4375 55.875 C35.05971436 56.95458984 35.68192871 58.03417969 36.32299805 59.14648438 C37.58511517 61.3368252 38.84707785 63.52725502 40.10888672 65.71777344 C43.23680148 71.14659942 46.36858448 76.57319281 49.5 82 C50.75001879 84.16665583 52.00001878 86.3333225 53.25 88.5 C53.86875 89.5725 54.4875 90.645 55.125 91.75 C165.75 283.5 165.75 283.5 167.62524414 286.75048828 C168.87435518 288.91557071 170.12354129 291.08060982 171.37280273 293.24560547 C174.51202309 298.68615706 177.64990563 304.12747216 180.78515625 309.5703125 C186.80747329 320.02206199 192.84669337 330.46299548 198.9375 340.875 C204.35586162 350.13926971 209.69650724 359.44624319 215.00915527 368.77133179 C220.41039762 378.25006293 225.8746938 387.69047823 231.39648438 397.09960938 C233.91895117 401.40335865 236.43060725 405.71320336 238.89453125 410.05078125 C239.50518433 411.12259644 239.50518433 411.12259644 240.12817383 412.21606445 C241 414 241 414 241 416 C82.6 416 -75.8 416 -239 416 C-237.53195771 411.59587313 -236.32284118 408.52117022 -234.05078125 404.640625 C-233.45773193 403.62081543 -232.86468262 402.60100586 -232.25366211 401.55029297 C-231.29278687 399.91664795 -231.29278687 399.91664795 -230.3125 398.25 C-229.63817285 397.0942512 -228.96443682 395.93815734 -228.29125977 394.78173828 C-226.89270204 392.38019452 -225.49161706 389.98015196 -224.08886719 387.58105469 C-220.84524109 382.02768166 -217.64478536 376.44940689 -214.4375 370.875 C-209.6733229 362.60876952 -204.87996351 354.36027243 -200.0625 346.125 C-194.98724877 337.44737759 -189.97741233 328.73394432 -185 320 C-179.4599827 310.27884383 -173.86625191 300.59105342 -168.21655273 290.93310547 C-162.06233258 280.40915375 -155.97630004 269.84619863 -149.89111328 259.28222656 C-146.76319852 253.85340058 -143.63141552 248.42680719 -140.5 243 C-139.24998121 240.83334417 -137.99998122 238.6666775 -136.75 236.5 C-104.25 180.16666667 -71.75 123.83333333 -39.25 67.5 C-38.63108887 66.42717773 -38.01217773 65.35435547 -37.37451172 64.24902344 C-36.12628966 62.08552524 -34.87791761 59.92211357 -33.62939453 57.75878906 C-30.47594744 52.29434983 -27.32523904 46.82836355 -24.1796875 41.359375 C-16.21352792 27.5166071 -8.1615945 13.72849859 0 0 Z M0 68 C-0.57161865 68.99290039 -0.57161865 68.99290039 -1.15478516 70.00585938 C-2.97750122 73.17097015 -4.80097008 76.33564627 -6.625 79.5 C-7.13185837 80.37933197 -7.13185837 80.37933197 -7.6489563 81.27642822 C-12.3855068 89.49146796 -17.14840099 97.6904478 -21.9375 105.875 C-27.01286192 114.55255715 -32.02258825 123.2660567 -37 132 C-42.5400173 141.72115617 -48.13374809 151.40894658 -53.78344727 161.06689453 C-59.93766742 171.59084625 -66.02369996 182.15380137 -72.10888672 192.71777344 C-75.23680148 198.14659942 -78.36858448 203.57319281 -81.5 209 C-82.75001879 211.16665583 -84.00001878 213.3333225 -85.25 215.5 C-152.75 332.5 -152.75 332.5 -154.62841797 335.75561523 C-155.86738234 337.9033582 -157.10599424 340.05130455 -158.34423828 342.19946289 C-161.28014105 347.29179437 -164.21969755 352.38191695 -167.17169189 357.4649353 C-168.57068053 359.87434008 -169.96767029 362.2849009 -171.36450195 364.69555664 C-172.35498071 366.40298982 -173.3483594 368.10873972 -174.34179688 369.81445312 C-174.93798828 370.84376953 -175.53417969 371.87308594 -176.1484375 372.93359375 C-176.67614746 373.84165771 -177.20385742 374.74972168 -177.74755859 375.68530273 C-179.1121051 378.04741501 -179.1121051 378.04741501 -180 381 C-60.54 381 58.92 381 182 381 C180.50697948 377.26744871 179.04854911 374.17037559 177.05078125 370.73828125 C176.4578125 369.71541016 175.86484375 368.69253906 175.25390625 367.63867188 C174.61324219 366.54103516 173.97257812 365.44339844 173.3125 364.3125 C172.6376662 363.15059652 171.96319344 361.98848329 171.2890625 360.82617188 C169.88892911 358.4127596 168.48724981 356.0002554 167.08447266 353.58837891 C163.87508732 348.06732929 160.68874937 342.53298399 157.5 337 C156.2501082 334.83327091 155.00010785 332.66660444 153.75 330.5 C71.25 187.49999999 71.25 187.49999999 69.37475586 184.24951172 C68.12564482 182.08442929 66.87645871 179.91939018 65.62719727 177.75439453 C62.48797691 172.31384294 59.35009437 166.87252784 56.21484375 161.4296875 C50.19252718 150.97793881 44.15341586 140.53694017 38.0625 130.125 C33.31008794 122.00112649 28.61621774 113.84545865 23.95852661 105.66705322 C18.54990225 96.17411483 13.12770931 86.68876675 7.625 77.25 C7.08351318 76.30882324 6.54202637 75.36764648 5.98413086 74.39794922 C5.4866333 73.54990723 4.98913574 72.70186523 4.4765625 71.828125 C4.04424316 71.0846582 3.61192383 70.34119141 3.16650391 69.57519531 C2.58908447 68.79547363 2.58908447 68.79547363 2 68 C1.34 68 0.68 68 0 68 Z " fill="#ED1C24" transform="translate(255,48)"/>
<path d="M0 0 C4.31899433 2.37046047 7.08920056 5.47069763 9 10 C9.74193482 15.51151581 8.54787148 18.81157716 5.4921875 23.265625 C3.29505516 25.81935997 1.17434694 26.94188435 -2 28 C-3.66621616 28.03874921 -5.33394172 28.0450286 -7 28 C-6.31164062 28.85658203 -6.31164062 28.85658203 -5.609375 29.73046875 C-1.91288822 34.61511199 0.13688866 38.1070613 1.0625 44.1875 C3.71717487 54.47589432 15.07690728 59.33430561 23.58984375 64.48876953 C25.82473284 65.89010295 27.91633528 67.38467639 30 69 C28.125 74.75 28.125 74.75 27 77 C20.28308649 76.48797851 14.60277748 75.12083433 8.3125 72.75 C7.49716797 72.46253906 6.68183594 72.17507813 5.84179688 71.87890625 C0.00438191 69.71759982 -5.15670963 67.41570937 -8.25268555 61.67871094 C-9.2459242 59.47401066 -10.16033331 57.26710006 -11 55 C-12.20536243 58.07664626 -13.38608194 61.16218268 -14.5625 64.25 C-14.90474609 65.12269531 -15.24699219 65.99539063 -15.59960938 66.89453125 C-15.91865234 67.73886719 -16.23769531 68.58320313 -16.56640625 69.453125 C-16.86490479 70.22817383 -17.16340332 71.00322266 -17.47094727 71.80175781 C-18.07285892 74.30273268 -17.87709526 75.60469689 -17 78 C-16.00976992 79.4937369 -14.96038765 80.94890771 -13.875 82.375 C-3.45676483 97.13416649 1.01196703 113.87472174 6 131 C6.36955811 132.1866626 6.73911621 133.3733252 7.11987305 134.59594727 C8 138 8 138 8 143 C3.05 143 -1.9 143 -7 143 C-7.98190056 140.37518085 -8.96377963 137.75035365 -9.94555664 135.12548828 C-10.77680922 132.90805217 -11.6106522 130.69158549 -12.44702148 128.47607422 C-16.01357636 119.02432015 -16.01357636 119.02432015 -17.4296875 114.86328125 C-19.95225624 107.65221406 -23.7690934 98.6154533 -31 95 C-31.52207031 96.88525391 -31.52207031 96.88525391 -32.0546875 98.80859375 C-34.36665296 106.51197571 -37.29256636 113.99519462 -40.15283203 121.50756836 C-41.13393147 124.0859726 -42.10831563 126.66684634 -43.08203125 129.24804688 C-43.702732 130.88556569 -44.32381167 132.52294093 -44.9453125 134.16015625 C-45.38280319 135.31935326 -45.38280319 135.31935326 -45.82913208 136.50196838 C-47.88471098 141.88471098 -47.88471098 141.88471098 -49 143 C-51.35313555 143.07271741 -53.70833668 143.08370868 -56.0625 143.0625 C-57.35285156 143.05347656 -58.64320313 143.04445313 -59.97265625 143.03515625 C-61.47119141 143.01775391 -61.47119141 143.01775391 -63 143 C-62.37353421 136.34955246 -60.27844061 130.34531711 -58.1484375 124.0390625 C-57.37169153 121.68773254 -56.59567215 119.33616246 -55.8203125 116.984375 C-54.59896586 113.29970092 -53.37233139 109.61708019 -52.1328125 105.93847656 C-50.93444418 102.37294917 -49.75866271 98.80059265 -48.5859375 95.2265625 C-48.21205902 94.13566315 -47.83818054 93.04476379 -47.45297241 91.92080688 C-45.35594316 85.46663148 -44.68664581 80.65134923 -46 74 C-46.66886711 63.61969699 -45.05594973 55.14886142 -40 46 C-42.37605774 46.05764726 -42.37605774 46.05764726 -45 47 C-47.12011872 49.51470841 -47.12011872 49.51470841 -48.875 52.75 C-49.37773437 53.60887817 -49.37773437 53.60887817 -49.890625 54.48510742 C-50.94958522 56.31166452 -51.97903223 58.15196172 -53 60 C-53.51675293 60.93416748 -53.51675293 60.93416748 -54.04394531 61.88720703 C-56.06926016 65.57073637 -58.04967644 69.27610096 -60 73 C-61.43793392 72.68950274 -62.8753318 72.3765224 -64.3125 72.0625 C-65.11300781 71.88847656 -65.91351563 71.71445312 -66.73828125 71.53515625 C-69 71 -69 71 -72 70 C-71.06200855 64.42275353 -68.74516582 59.81420652 -66.3125 54.75 C-65.89033203 53.84636719 -65.46816406 52.94273437 -65.03320312 52.01171875 C-57.19638568 35.58158866 -57.19638568 35.58158866 -49.6875 31.1875 C-48.74132812 30.63191406 -47.79515625 30.07632813 -46.8203125 29.50390625 C-38.90157441 25.28131046 -32.80165305 22.8536884 -23.75 22.9375 C-21.85507813 22.95103516 -21.85507813 22.95103516 -19.921875 22.96484375 C-18.95765625 22.97644531 -17.9934375 22.98804688 -17 23 C-17.48597656 22.08089844 -17.97195313 21.16179687 -18.47265625 20.21484375 C-20.29235798 16.38462757 -20.51585994 14.20057377 -20 10 C-18.6360759 6.44353124 -16.72963104 3.68541098 -13.9375 1.0625 C-9.26645992 -0.62702514 -4.89113032 -0.87466565 0 0 Z " fill="#030303" transform="translate(277,191)"/>
<path d="M0 0 C7.26 0 14.52 0 22 0 C22 19.8 22 39.6 22 60 C14.74 60 7.48 60 0 60 C0 40.2 0 20.4 0 0 Z " fill="#050505" transform="translate(245,350)"/>
<path d="M0 0 C7.26 0 14.52 0 22 0 C24.80894771 19.9846082 27.55999975 39.96631373 30 60 C22.41 60 14.82 60 7 60 C6.5875 56.266875 6.175 52.53375 5.75 48.6875 C4.5146762 37.71545688 3.00201868 26.80378858 1.27050781 15.89916992 C1.10518555 14.83545166 0.93986328 13.7717334 0.76953125 12.67578125 C0.62104736 11.74677002 0.47256348 10.81775879 0.31958008 9.8605957 C-0.04554332 6.59233685 0 3.28859104 0 0 Z " fill="#050505" transform="translate(289,350)"/>
<path d="M0 0 C6.93 0 13.86 0 21 0 C24.36984577 8.98625538 24.36984577 8.98625538 25.2109375 12.55859375 C25.40123535 13.3482251 25.5915332 14.13785645 25.78759766 14.95141602 C25.98144043 15.77182373 26.1752832 16.59223145 26.375 17.4375 C27.97520163 24.0286901 29.68107886 30.5640595 31.625 37.0625 C31.83261963 37.75746582 32.04023926 38.45243164 32.25415039 39.16845703 C32.83609252 41.11230701 33.41804598 43.05615359 34 45 C34.61334737 47.10150892 35.21881908 49.20535082 35.8125 51.3125 C36.16248047 52.54419922 36.16248047 52.54419922 36.51953125 53.80078125 C37 56 37 56 37 60 C29.74 60 22.48 60 15 60 C14.278125 57.07125 13.55625 54.1425 12.8125 51.125 C11.1335479 44.36880823 9.38435243 37.63933832 7.5 30.9375 C5.68869331 24.48968117 3.91119644 18.03436452 2.1875 11.5625 C1.96835937 10.75095459 1.74921875 9.93940918 1.5234375 9.10327148 C0.69985941 5.99260375 0 3.23266642 0 0 Z " fill="#040404" transform="translate(333,350)"/>
<path d="M0 0 C6.93 0 13.86 0 21 0 C19.88650381 8.35122141 17.91111997 16.12860323 15.53808594 24.19482422 C12.06639548 36.05188553 9.05785692 48.03093281 6 60 C-1.26 60 -8.52 60 -16 60 C-14.87555934 51.00447475 -14.87555934 51.00447475 -14.01953125 48.0546875 C-13.82794434 47.38115234 -13.63635742 46.70761719 -13.43896484 46.01367188 C-13.23223145 45.30791016 -13.02549805 44.60214844 -12.8125 43.875 C-12.36255367 42.2996868 -11.91337101 40.72415533 -11.46484375 39.1484375 C-11.22749512 38.31924805 -10.99014648 37.49005859 -10.74560547 36.63574219 C-9.16098999 31.03406939 -7.65953602 25.40920101 -6.14379883 19.78857422 C-1.69522696 3.39045392 -1.69522696 3.39045392 0 0 Z " fill="#040404" transform="translate(158,350)"/>
<path d="M0 0 C7.26 0 14.52 0 22 0 C21.51185027 10.37318179 20.09608622 20.45519698 18.52148438 30.71142578 C17.03967615 40.45852145 15.94210938 50.18636065 15 60 C7.74 60 0.48 60 -7 60 C-7 49.88497016 -7 49.88497016 -6.23046875 45.05859375 C-6.06514648 43.9910083 -5.89982422 42.92342285 -5.72949219 41.82348633 C-5.46120605 40.1474231 -5.46120605 40.1474231 -5.1875 38.4375 C-3.21109528 25.64832297 -1.5572274 12.84712608 0 0 Z " fill="#040404" transform="translate(201,350)"/>
</svg>
